<svg width="796" height="284" viewBox="0 0 796 284" fill="none" xmlns="http://www.w3.org/2000/svg">
<path d="M348.15 124.5C348.15 118.32 349.53 112.8 352.29 107.94C355.11 103.02 358.92 99.21 363.72 96.51C368.58 93.75 374.01 92.37 380.01 92.37C387.03 92.37 393.18 94.17 398.46 97.77C403.74 101.37 407.43 106.35 409.53 112.71H395.04C393.6 109.71 391.56 107.46 388.92 105.96C386.34 104.46 383.34 103.71 379.92 103.71C376.26 103.71 372.99 104.58 370.11 106.32C367.29 108 365.07 110.4 363.45 113.52C361.89 116.64 361.11 120.3 361.11 124.5C361.11 128.64 361.89 132.3 363.45 135.48C365.07 138.6 367.29 141.03 370.11 142.77C372.99 144.45 376.26 145.29 379.92 145.29C383.34 145.29 386.34 144.54 388.92 143.04C391.56 141.48 393.6 139.2 395.04 136.2H409.53C407.43 142.62 403.74 147.63 398.46 151.23C393.24 154.77 387.09 156.54 380.01 156.54C374.01 156.54 368.58 155.19 363.72 152.49C358.92 149.73 355.11 145.92 352.29 141.06C349.53 136.2 348.15 130.68 348.15 124.5ZM442.432 156.81C437.632 156.81 433.312 155.76 429.472 153.66C425.632 151.5 422.602 148.47 420.382 144.57C418.222 140.67 417.142 136.17 417.142 131.07C417.142 125.97 418.252 121.47 420.472 117.57C422.752 113.67 425.842 110.67 429.742 108.57C433.642 106.41 437.992 105.33 442.792 105.33C447.592 105.33 451.942 106.41 455.842 108.57C459.742 110.67 462.802 113.67 465.022 117.57C467.302 121.47 468.442 125.97 468.442 131.07C468.442 136.17 467.272 140.67 464.932 144.57C462.652 148.47 459.532 151.5 455.572 153.66C451.672 155.76 447.292 156.81 442.432 156.81ZM442.432 145.83C444.712 145.83 446.842 145.29 448.822 144.21C450.862 143.07 452.482 141.39 453.682 139.17C454.882 136.95 455.482 134.25 455.482 131.07C455.482 126.33 454.222 122.7 451.702 120.18C449.242 117.6 446.212 116.31 442.612 116.31C439.012 116.31 435.982 117.6 433.522 120.18C431.122 122.7 429.922 126.33 429.922 131.07C429.922 135.81 431.092 139.47 433.432 142.05C435.832 144.57 438.832 145.83 442.432 145.83ZM499.825 156.81C495.025 156.81 490.705 155.76 486.865 153.66C483.025 151.5 479.995 148.47 477.775 144.57C475.615 140.67 474.535 136.17 474.535 131.07C474.535 125.97 475.645 121.47 477.865 117.57C480.145 113.67 483.235 110.67 487.135 108.57C491.035 106.41 495.385 105.33 500.185 105.33C504.985 105.33 509.335 106.41 513.235 108.57C517.135 110.67 520.195 113.67 522.415 117.57C524.695 121.47 525.835 125.97 525.835 131.07C525.835 136.17 524.665 140.67 522.325 144.57C520.045 148.47 516.925 151.5 512.965 153.66C509.065 155.76 504.685 156.81 499.825 156.81ZM499.825 145.83C502.105 145.83 504.235 145.29 506.215 144.21C508.255 143.07 509.875 141.39 511.075 139.17C512.275 136.95 512.875 134.25 512.875 131.07C512.875 126.33 511.615 122.7 509.095 120.18C506.635 117.6 503.605 116.31 500.005 116.31C496.405 116.31 493.375 117.6 490.915 120.18C488.515 122.7 487.315 126.33 487.315 131.07C487.315 135.81 488.485 139.47 490.825 142.05C493.225 144.57 496.225 145.83 499.825 145.83ZM547.677 113.34C549.297 111.06 551.517 109.17 554.337 107.67C557.217 106.11 560.487 105.33 564.147 105.33C568.407 105.33 572.247 106.38 575.667 108.48C579.147 110.58 581.877 113.58 583.857 117.48C585.897 121.32 586.917 125.79 586.917 130.89C586.917 135.99 585.897 140.52 583.857 144.48C581.877 148.38 579.147 151.41 575.667 153.57C572.247 155.73 568.407 156.81 564.147 156.81C560.487 156.81 557.247 156.06 554.427 154.56C551.667 153.06 549.417 151.17 547.677 148.89V179.76H535.077V106.14H547.677V113.34ZM574.047 130.89C574.047 127.89 573.417 125.31 572.157 123.15C570.957 120.93 569.337 119.25 567.297 118.11C565.317 116.97 563.157 116.4 560.817 116.4C558.537 116.4 556.377 117 554.337 118.2C552.357 119.34 550.737 121.02 549.477 123.24C548.277 125.46 547.677 128.07 547.677 131.07C547.677 134.07 548.277 136.68 549.477 138.9C550.737 141.12 552.357 142.83 554.337 144.03C556.377 145.17 558.537 145.74 560.817 145.74C563.157 145.74 565.317 145.14 567.297 143.94C569.337 142.74 570.957 141.03 572.157 138.81C573.417 136.59 574.047 133.95 574.047 130.89ZM642.423 129.99C642.423 131.79 642.303 133.41 642.063 134.85H605.613C605.913 138.45 607.173 141.27 609.393 143.31C611.613 145.35 614.343 146.37 617.583 146.37C622.263 146.37 625.593 144.36 627.573 140.34H641.163C639.723 145.14 636.963 149.1 632.883 152.22C628.803 155.28 623.793 156.81 617.853 156.81C613.053 156.81 608.733 155.76 604.893 153.66C601.113 151.5 598.143 148.47 595.983 144.57C593.883 140.67 592.833 136.17 592.833 131.07C592.833 125.91 593.883 121.38 595.983 117.48C598.083 113.58 601.023 110.58 604.803 108.48C608.583 106.38 612.933 105.33 617.853 105.33C622.593 105.33 626.823 106.35 630.543 108.39C634.323 110.43 637.233 113.34 639.273 117.12C641.373 120.84 642.423 125.13 642.423 129.99ZM629.373 126.39C629.313 123.15 628.143 120.57 625.863 118.65C623.583 116.67 620.793 115.68 617.493 115.68C614.373 115.68 611.733 116.64 609.573 118.56C607.473 120.42 606.183 123.03 605.703 126.39H629.373ZM664.22 113.88C665.84 111.24 667.94 109.17 670.52 107.67C673.16 106.17 676.16 105.42 679.52 105.42V118.65H676.19C672.23 118.65 669.23 119.58 667.19 121.44C665.21 123.3 664.22 126.54 664.22 131.16V156H651.62V106.14H664.22V113.88Z" fill="#02122B"></path>
<path d="M749.906 144.03H724.886L720.746 156H707.516L730.106 93.09H744.776L767.366 156H754.046L749.906 144.03ZM746.486 133.95L737.396 107.67L728.306 133.95H746.486ZM788.41 89.4V156H775.81V89.4H788.41Z" fill="#00A1DF"></path>
<path d="M359.67 210.35H350.55L348.87 215H345.99L353.55 194.21H356.7L364.23 215H361.35L359.67 210.35ZM358.89 208.13L355.11 197.57L351.33 208.13H358.89ZM370.255 192.8V215H367.525V192.8H370.255ZM395.266 210.35H386.146L384.466 215H381.586L389.146 194.21H392.296L399.826 215H396.946L395.266 210.35ZM394.486 208.13L390.706 197.57L386.926 208.13H394.486ZM411.131 198.26C413.131 198.26 414.751 198.87 415.991 200.09C417.231 201.29 417.851 203.03 417.851 205.31V215H415.151V205.7C415.151 204.06 414.741 202.81 413.921 201.95C413.101 201.07 411.981 200.63 410.561 200.63C409.121 200.63 407.971 201.08 407.111 201.98C406.271 202.88 405.851 204.19 405.851 205.91V215H403.121V198.56H405.851V200.9C406.391 200.06 407.121 199.41 408.041 198.95C408.981 198.49 410.011 198.26 411.131 198.26ZM421.29 206.72C421.29 205.04 421.63 203.57 422.31 202.31C422.99 201.03 423.92 200.04 425.1 199.34C426.3 198.64 427.63 198.29 429.09 198.29C430.53 198.29 431.78 198.6 432.84 199.22C433.9 199.84 434.69 200.62 435.21 201.56V198.56H437.97V215H435.21V211.94C434.67 212.9 433.86 213.7 432.78 214.34C431.72 214.96 430.48 215.27 429.06 215.27C427.6 215.27 426.28 214.91 425.1 214.19C423.92 213.47 422.99 212.46 422.31 211.16C421.63 209.86 421.29 208.38 421.29 206.72ZM435.21 206.75C435.21 205.51 434.96 204.43 434.46 203.51C433.96 202.59 433.28 201.89 432.42 201.41C431.58 200.91 430.65 200.66 429.63 200.66C428.61 200.66 427.68 200.9 426.84 201.38C426 201.86 425.33 202.56 424.83 203.48C424.33 204.4 424.08 205.48 424.08 206.72C424.08 207.98 424.33 209.08 424.83 210.02C425.33 210.94 426 211.65 426.84 212.15C427.68 212.63 428.61 212.87 429.63 212.87C430.65 212.87 431.58 212.63 432.42 212.15C433.28 211.65 433.96 210.94 434.46 210.02C434.96 209.08 435.21 207.99 435.21 206.75ZM445.313 192.8V215H442.583V192.8H445.313ZM464.126 198.56L454.226 222.74H451.406L454.646 214.82L448.016 198.56H451.046L456.206 211.88L461.306 198.56H464.126ZM472.691 215.27C471.431 215.27 470.301 215.06 469.301 214.64C468.301 214.2 467.511 213.6 466.931 212.84C466.351 212.06 466.031 211.17 465.971 210.17H468.791C468.871 210.99 469.251 211.66 469.931 212.18C470.631 212.7 471.541 212.96 472.661 212.96C473.701 212.96 474.521 212.73 475.121 212.27C475.721 211.81 476.021 211.23 476.021 210.53C476.021 209.81 475.701 209.28 475.061 208.94C474.421 208.58 473.431 208.23 472.091 207.89C470.871 207.57 469.871 207.25 469.091 206.93C468.331 206.59 467.671 206.1 467.111 205.46C466.571 204.8 466.301 203.94 466.301 202.88C466.301 202.04 466.551 201.27 467.051 200.57C467.551 199.87 468.261 199.32 469.181 198.92C470.101 198.5 471.151 198.29 472.331 198.29C474.151 198.29 475.621 198.75 476.741 199.67C477.861 200.59 478.461 201.85 478.541 203.45H475.811C475.751 202.59 475.401 201.9 474.761 201.38C474.141 200.86 473.301 200.6 472.241 200.6C471.261 200.6 470.481 200.81 469.901 201.23C469.321 201.65 469.031 202.2 469.031 202.88C469.031 203.42 469.201 203.87 469.541 204.23C469.901 204.57 470.341 204.85 470.861 205.07C471.401 205.27 472.141 205.5 473.081 205.76C474.261 206.08 475.221 206.4 475.961 206.72C476.701 207.02 477.331 207.48 477.851 208.1C478.391 208.72 478.671 209.53 478.691 210.53C478.691 211.43 478.441 212.24 477.941 212.96C477.441 213.68 476.731 214.25 475.811 214.67C474.911 215.07 473.871 215.27 472.691 215.27ZM485.874 200.81V210.5C485.874 211.3 486.044 211.87 486.384 212.21C486.724 212.53 487.314 212.69 488.154 212.69H490.164V215H487.704C486.184 215 485.044 214.65 484.284 213.95C483.524 213.25 483.144 212.1 483.144 210.5V200.81H481.014V198.56H483.144V194.42H485.874V198.56H490.164V200.81H485.874ZM508.16 200.81H504.71V215H501.98V200.81H499.85V198.56H501.98V197.39C501.98 195.55 502.45 194.21 503.39 193.37C504.35 192.51 505.88 192.08 507.98 192.08V194.36C506.78 194.36 505.93 194.6 505.43 195.08C504.95 195.54 504.71 196.31 504.71 197.39V198.56H508.16V200.81ZM518.513 215.27C516.973 215.27 515.573 214.92 514.313 214.22C513.073 213.52 512.093 212.53 511.373 211.25C510.673 209.95 510.323 208.45 510.323 206.75C510.323 205.07 510.683 203.59 511.403 202.31C512.143 201.01 513.143 200.02 514.403 199.34C515.663 198.64 517.073 198.29 518.633 198.29C520.193 198.29 521.603 198.64 522.863 199.34C524.123 200.02 525.113 201 525.833 202.28C526.573 203.56 526.943 205.05 526.943 206.75C526.943 208.45 526.563 209.95 525.803 211.25C525.063 212.53 524.053 213.52 522.773 214.22C521.493 214.92 520.073 215.27 518.513 215.27ZM518.513 212.87C519.493 212.87 520.413 212.64 521.273 212.18C522.133 211.72 522.823 211.03 523.343 210.11C523.883 209.19 524.153 208.07 524.153 206.75C524.153 205.43 523.893 204.31 523.373 203.39C522.853 202.47 522.173 201.79 521.333 201.35C520.493 200.89 519.583 200.66 518.603 200.66C517.603 200.66 516.683 200.89 515.843 201.35C515.023 201.79 514.363 202.47 513.863 203.39C513.363 204.31 513.113 205.43 513.113 206.75C513.113 208.09 513.353 209.22 513.833 210.14C514.333 211.06 514.993 211.75 515.813 212.21C516.633 212.65 517.533 212.87 518.513 212.87ZM533.263 201.23C533.743 200.29 534.423 199.56 535.303 199.04C536.203 198.52 537.293 198.26 538.573 198.26V201.08H537.853C534.793 201.08 533.263 202.74 533.263 206.06V215H530.533V198.56H533.263V201.23ZM548.702 204.53C548.702 202.49 549.162 200.66 550.082 199.04C551.002 197.4 552.252 196.12 553.832 195.2C555.432 194.28 557.202 193.82 559.142 193.82C561.422 193.82 563.412 194.37 565.112 195.47C566.812 196.57 568.052 198.13 568.832 200.15H565.562C564.982 198.89 564.142 197.92 563.042 197.24C561.962 196.56 560.662 196.22 559.142 196.22C557.682 196.22 556.372 196.56 555.212 197.24C554.052 197.92 553.142 198.89 552.482 200.15C551.822 201.39 551.492 202.85 551.492 204.53C551.492 206.19 551.822 207.65 552.482 208.91C553.142 210.15 554.052 211.11 555.212 211.79C556.372 212.47 557.682 212.81 559.142 212.81C560.662 212.81 561.962 212.48 563.042 211.82C564.142 211.14 564.982 210.17 565.562 208.91H568.832C568.052 210.91 566.812 212.46 565.112 213.56C563.412 214.64 561.422 215.18 559.142 215.18C557.202 215.18 555.432 214.73 553.832 213.83C552.252 212.91 551.002 211.64 550.082 210.02C549.162 208.4 548.702 206.57 548.702 204.53ZM583.906 215L578.926 206.45H575.626V215H572.896V194.09H579.646C581.226 194.09 582.556 194.36 583.636 194.9C584.736 195.44 585.556 196.17 586.096 197.09C586.636 198.01 586.906 199.06 586.906 200.24C586.906 201.68 586.486 202.95 585.646 204.05C584.826 205.15 583.586 205.88 581.926 206.24L587.176 215H583.906ZM575.626 204.26H579.646C581.126 204.26 582.236 203.9 582.976 203.18C583.716 202.44 584.086 201.46 584.086 200.24C584.086 199 583.716 198.04 582.976 197.36C582.256 196.68 581.146 196.34 579.646 196.34H575.626V204.26ZM612.358 194.24V215H609.628V199.52L602.728 215H600.808L593.878 199.49V215H591.148V194.24H594.088L601.768 211.4L609.448 194.24H612.358ZM627.716 194.09V215H624.986V194.09H627.716ZM640.379 198.26C642.379 198.26 643.999 198.87 645.239 200.09C646.479 201.29 647.099 203.03 647.099 205.31V215H644.399V205.7C644.399 204.06 643.989 202.81 643.169 201.95C642.349 201.07 641.229 200.63 639.809 200.63C638.369 200.63 637.219 201.08 636.359 201.98C635.519 202.88 635.099 204.19 635.099 205.91V215H632.369V198.56H635.099V200.9C635.639 200.06 636.369 199.41 637.289 198.95C638.229 198.49 639.259 198.26 640.379 198.26ZM654.888 200.81V210.5C654.888 211.3 655.058 211.87 655.398 212.21C655.738 212.53 656.328 212.69 657.168 212.69H659.178V215H656.718C655.198 215 654.058 214.65 653.298 213.95C652.538 213.25 652.158 212.1 652.158 210.5V200.81H650.028V198.56H652.158V194.42H654.888V198.56H659.178V200.81H654.888ZM677.486 206.15C677.486 206.67 677.456 207.22 677.396 207.8H664.256C664.356 209.42 664.906 210.69 665.906 211.61C666.926 212.51 668.156 212.96 669.596 212.96C670.776 212.96 671.756 212.69 672.536 212.15C673.336 211.59 673.896 210.85 674.216 209.93H677.156C676.716 211.51 675.836 212.8 674.516 213.8C673.196 214.78 671.556 215.27 669.596 215.27C668.036 215.27 666.636 214.92 665.396 214.22C664.176 213.52 663.216 212.53 662.516 211.25C661.816 209.95 661.466 208.45 661.466 206.75C661.466 205.05 661.806 203.56 662.486 202.28C663.166 201 664.116 200.02 665.336 199.34C666.576 198.64 667.996 198.29 669.596 198.29C671.156 198.29 672.536 198.63 673.736 199.31C674.936 199.99 675.856 200.93 676.496 202.13C677.156 203.31 677.486 204.65 677.486 206.15ZM674.666 205.58C674.666 204.54 674.436 203.65 673.976 202.91C673.516 202.15 672.886 201.58 672.086 201.2C671.306 200.8 670.436 200.6 669.476 200.6C668.096 200.6 666.916 201.04 665.936 201.92C664.976 202.8 664.426 204.02 664.286 205.58H674.666ZM683.819 192.8V215H681.089V192.8H683.819ZM691.202 192.8V215H688.472V192.8H691.202ZM697.265 195.89C696.745 195.89 696.305 195.71 695.945 195.35C695.585 194.99 695.405 194.55 695.405 194.03C695.405 193.51 695.585 193.07 695.945 192.71C696.305 192.35 696.745 192.17 697.265 192.17C697.765 192.17 698.185 192.35 698.525 192.71C698.885 193.07 699.065 193.51 699.065 194.03C699.065 194.55 698.885 194.99 698.525 195.35C698.185 195.71 697.765 195.89 697.265 195.89ZM698.585 198.56V215H695.855V198.56H698.585ZM710.018 198.29C711.438 198.29 712.678 198.6 713.738 199.22C714.818 199.84 715.618 200.62 716.138 201.56V198.56H718.898V215.36C718.898 216.86 718.578 218.19 717.938 219.35C717.298 220.53 716.378 221.45 715.178 222.11C713.998 222.77 712.618 223.1 711.038 223.1C708.878 223.1 707.078 222.59 705.638 221.57C704.198 220.55 703.348 219.16 703.088 217.4H705.788C706.088 218.4 706.708 219.2 707.648 219.8C708.588 220.42 709.718 220.73 711.038 220.73C712.538 220.73 713.758 220.26 714.698 219.32C715.658 218.38 716.138 217.06 716.138 215.36V211.91C715.598 212.87 714.798 213.67 713.738 214.31C712.678 214.95 711.438 215.27 710.018 215.27C708.558 215.27 707.228 214.91 706.028 214.19C704.848 213.47 703.918 212.46 703.238 211.16C702.558 209.86 702.218 208.38 702.218 206.72C702.218 205.04 702.558 203.57 703.238 202.31C703.918 201.03 704.848 200.04 706.028 199.34C707.228 198.64 708.558 198.29 710.018 198.29ZM716.138 206.75C716.138 205.51 715.888 204.43 715.388 203.51C714.888 202.59 714.208 201.89 713.348 201.41C712.508 200.91 711.578 200.66 710.558 200.66C709.538 200.66 708.608 200.9 707.768 201.38C706.928 201.86 706.258 202.56 705.758 203.48C705.258 204.4 705.008 205.48 705.008 206.72C705.008 207.98 705.258 209.08 705.758 210.02C706.258 210.94 706.928 211.65 707.768 212.15C708.608 212.63 709.538 212.87 710.558 212.87C711.578 212.87 712.508 212.63 713.348 212.15C714.208 211.65 714.888 210.94 715.388 210.02C715.888 209.08 716.138 207.99 716.138 206.75ZM738.511 206.15C738.511 206.67 738.481 207.22 738.421 207.8H725.281C725.381 209.42 725.931 210.69 726.931 211.61C727.951 212.51 729.181 212.96 730.621 212.96C731.801 212.96 732.781 212.69 733.561 212.15C734.361 211.59 734.921 210.85 735.241 209.93H738.181C737.741 211.51 736.861 212.8 735.541 213.8C734.221 214.78 732.581 215.27 730.621 215.27C729.061 215.27 727.661 214.92 726.421 214.22C725.201 213.52 724.241 212.53 723.541 211.25C722.841 209.95 722.491 208.45 722.491 206.75C722.491 205.05 722.831 203.56 723.511 202.28C724.191 201 725.141 200.02 726.361 199.34C727.601 198.64 729.021 198.29 730.621 198.29C732.181 198.29 733.561 198.63 734.761 199.31C735.961 199.99 736.881 200.93 737.521 202.13C738.181 203.31 738.511 204.65 738.511 206.15ZM735.691 205.58C735.691 204.54 735.461 203.65 735.001 202.91C734.541 202.15 733.911 201.58 733.111 201.2C732.331 200.8 731.461 200.6 730.501 200.6C729.121 200.6 727.941 201.04 726.961 201.92C726.001 202.8 725.451 204.02 725.311 205.58H735.691ZM750.125 198.26C752.125 198.26 753.745 198.87 754.985 200.09C756.225 201.29 756.845 203.03 756.845 205.31V215H754.145V205.7C754.145 204.06 753.735 202.81 752.915 201.95C752.095 201.07 750.975 200.63 749.555 200.63C748.115 200.63 746.965 201.08 746.105 201.98C745.265 202.88 744.845 204.19 744.845 205.91V215H742.115V198.56H744.845V200.9C745.385 200.06 746.115 199.41 747.035 198.95C747.975 198.49 749.005 198.26 750.125 198.26ZM760.284 206.75C760.284 205.05 760.624 203.57 761.304 202.31C761.984 201.03 762.924 200.04 764.124 199.34C765.344 198.64 766.734 198.29 768.294 198.29C770.314 198.29 771.974 198.78 773.274 199.76C774.594 200.74 775.464 202.1 775.884 203.84H772.944C772.664 202.84 772.114 202.05 771.294 201.47C770.494 200.89 769.494 200.6 768.294 200.6C766.734 200.6 765.474 201.14 764.514 202.22C763.554 203.28 763.074 204.79 763.074 206.75C763.074 208.73 763.554 210.26 764.514 211.34C765.474 212.42 766.734 212.96 768.294 212.96C769.494 212.96 770.494 212.68 771.294 212.12C772.094 211.56 772.644 210.76 772.944 209.72H775.884C775.444 211.4 774.564 212.75 773.244 213.77C771.924 214.77 770.274 215.27 768.294 215.27C766.734 215.27 765.344 214.92 764.124 214.22C762.924 213.52 761.984 212.53 761.304 211.25C760.624 209.97 760.284 208.47 760.284 206.75ZM794.527 206.15C794.527 206.67 794.497 207.22 794.437 207.8H781.297C781.397 209.42 781.947 210.69 782.947 211.61C783.967 212.51 785.197 212.96 786.637 212.96C787.817 212.96 788.797 212.69 789.577 212.15C790.377 211.59 790.937 210.85 791.257 209.93H794.197C793.757 211.51 792.877 212.8 791.557 213.8C790.237 214.78 788.597 215.27 786.637 215.27C785.077 215.27 783.677 214.92 782.437 214.22C781.217 213.52 780.257 212.53 779.557 211.25C778.857 209.95 778.507 208.45 778.507 206.75C778.507 205.05 778.847 203.56 779.527 202.28C780.207 201 781.157 200.02 782.377 199.34C783.617 198.64 785.037 198.29 786.637 198.29C788.197 198.29 789.577 198.63 790.777 199.31C791.977 199.99 792.897 200.93 793.537 202.13C794.197 203.31 794.527 204.65 794.527 206.15ZM791.707 205.58C791.707 204.54 791.477 203.65 791.017 202.91C790.557 202.15 789.927 201.58 789.127 201.2C788.347 200.8 787.477 200.6 786.517 200.6C785.137 200.6 783.957 201.04 782.977 201.92C782.017 202.8 781.467 204.02 781.327 205.58H791.707Z" fill="#5A5C69"></path>
<path d="M255.822 135.797C255.815 142.101 253.308 148.144 248.85 152.601C244.393 157.059 238.349 159.566 232.046 159.573H171.607C166.928 159.594 162.298 160.536 157.983 162.347C153.668 164.157 149.752 166.799 146.458 170.123C143.164 173.446 140.557 177.386 138.785 181.718C137.014 186.049 136.113 190.686 136.134 195.366C136.155 200.045 137.098 204.675 138.908 208.99C140.718 213.305 143.36 217.222 146.684 220.516C150.007 223.81 153.947 226.417 158.278 228.188C162.61 229.959 167.247 230.86 171.927 230.839H203.451C206.012 230.839 208.468 229.822 210.279 228.011C212.089 226.2 213.107 223.744 213.107 221.183C213.107 218.622 212.089 216.166 210.279 214.355C208.468 212.545 206.012 211.527 203.451 211.527H171.607C169.43 211.562 167.267 211.161 165.247 210.348C163.227 209.536 161.39 208.327 159.843 206.795C158.296 205.262 157.07 203.436 156.239 201.424C155.407 199.411 154.986 197.253 155.001 195.075C155.015 192.897 155.464 190.745 156.322 188.743C157.179 186.742 158.428 184.932 159.995 183.419C161.562 181.907 163.415 180.723 165.445 179.937C167.476 179.15 169.643 178.778 171.82 178.841H232.046C243.471 178.831 254.425 174.289 262.503 166.21C270.582 158.132 275.125 147.177 275.134 135.752H255.822V135.797Z" fill="url(#paint0_linear_9269_438)"></path>
<path d="M124.383 232.055V171.599C124.362 166.92 123.42 162.29 121.61 157.975C119.8 153.659 117.158 149.743 113.834 146.449C110.51 143.155 106.57 140.548 102.239 138.777C97.9078 137.005 93.2701 136.105 88.5907 136.125C83.9113 136.146 79.2817 137.089 74.9665 138.899C70.6513 140.709 66.735 143.351 63.441 146.675C60.147 149.999 57.5399 153.939 55.7686 158.27C53.9972 162.601 53.0963 167.239 53.1173 171.918V203.442C53.1173 206.003 54.1346 208.459 55.9454 210.27C57.7563 212.081 60.2122 213.098 62.7731 213.098C65.3341 213.098 67.7902 212.081 69.6011 210.27C71.4119 208.459 72.4292 206.003 72.4292 203.442V171.599C72.3947 169.422 72.7956 167.259 73.6082 165.239C74.4209 163.219 75.6288 161.381 77.1614 159.834C78.694 158.287 80.5202 157.062 82.5328 156.23C84.5454 155.399 86.7038 154.978 88.8813 154.992C91.0589 155.006 93.2118 155.455 95.2134 156.313C97.215 157.171 99.0251 158.42 100.537 159.987C102.05 161.553 103.234 163.407 104.02 165.437C104.806 167.468 105.179 169.635 105.116 171.812V232.038C105.125 243.462 109.668 254.416 117.746 262.495C125.825 270.574 136.779 275.116 148.204 275.125V255.822C141.895 255.825 135.843 253.323 131.376 248.867C126.91 244.411 124.395 238.364 124.383 232.055Z" fill="url(#paint1_linear_9269_438)"></path>
<path d="M112.082 53.1178H80.5581C77.9972 53.1178 75.5413 54.1351 73.7304 55.9459C71.9196 57.7568 70.9023 60.2127 70.9023 62.7736C70.9023 65.3345 71.9196 67.7907 73.7304 69.6015C75.5413 71.4124 77.9972 72.4297 80.5581 72.4297H112.357C114.535 72.3952 116.697 72.796 118.717 73.6087C120.738 74.4213 122.575 75.6293 124.122 77.1619C125.669 78.6945 126.894 80.5206 127.726 82.5332C128.557 84.5458 128.978 86.7043 128.964 88.8818C128.95 91.0593 128.501 93.2122 127.643 95.2138C126.785 97.2154 125.536 99.0255 123.97 100.538C122.403 102.05 120.55 103.234 118.519 104.02C116.488 104.807 114.321 105.179 112.144 105.116H51.9186C40.4938 105.126 29.5398 109.668 21.4612 117.747C13.3827 125.825 8.83985 136.78 8.83044 148.204H28.1427C28.1497 141.901 30.6568 135.857 35.1142 131.4C39.5715 126.942 45.615 124.435 51.9186 124.428H112.357C121.815 124.386 130.868 120.588 137.526 113.871C144.183 107.153 147.9 98.0663 147.857 88.6088C147.815 79.1512 144.017 70.0979 137.3 63.4404C130.582 56.7829 121.496 53.0664 112.038 53.1088L112.082 53.1178Z" fill="url(#paint2_linear_9269_438)"></path>
<path d="M221.236 70.894C219.968 70.894 218.712 71.1438 217.541 71.629C216.369 72.1143 215.305 72.8255 214.408 73.7221C213.511 74.6187 212.8 75.6832 212.315 76.8547C211.83 78.0262 211.58 79.2817 211.58 80.5498V112.393C211.614 114.571 211.213 116.733 210.401 118.753C209.588 120.774 208.38 122.611 206.848 124.158C205.315 125.705 203.489 126.93 201.476 127.762C199.464 128.593 197.305 129.014 195.128 129C192.95 128.986 190.797 128.537 188.796 127.679C186.794 126.821 184.984 125.573 183.472 124.006C181.96 122.439 180.776 120.586 179.989 118.555C179.203 116.524 178.831 114.357 178.894 112.18V51.9547C178.884 40.5299 174.341 29.5756 166.262 21.497C158.184 13.4185 147.23 8.87592 135.805 8.86652V28.1785C142.109 28.1855 148.152 30.6929 152.61 35.1502C157.067 39.6076 159.574 45.651 159.581 51.9547V112.393C159.624 121.844 163.419 130.891 170.131 137.543C176.844 144.196 185.924 147.909 195.374 147.867C204.825 147.824 213.871 144.029 220.524 137.317C227.176 130.604 230.89 121.524 230.847 112.074V80.5498C230.861 79.2815 230.623 78.0232 230.146 76.8482C229.668 75.6732 228.961 74.605 228.067 73.7061C227.172 72.8072 226.107 72.0956 224.934 71.6128C223.761 71.1299 222.504 70.8856 221.236 70.894Z" fill="url(#paint3_linear_9269_438)"></path>
<path d="M254.721 102.258H276.429C277.425 102.253 278.411 102.446 279.332 102.824C280.253 103.203 281.089 103.761 281.793 104.465C282.497 105.169 283.054 106.005 283.433 106.925C283.812 107.846 284.004 108.833 284 109.828V131.545C284.004 132.541 283.812 133.527 283.433 134.448C283.054 135.368 282.497 136.205 281.793 136.909C281.089 137.613 280.253 138.17 279.332 138.549C278.411 138.928 277.425 139.12 276.429 139.115H254.721C253.726 139.12 252.739 138.928 251.819 138.549C250.898 138.17 250.062 137.613 249.358 136.909C248.654 136.205 248.096 135.368 247.718 134.448C247.339 133.527 247.146 132.541 247.151 131.545V109.828C247.146 108.833 247.339 107.846 247.718 106.925C248.096 106.005 248.654 105.169 249.358 104.465C250.062 103.761 250.898 103.203 251.819 102.824C252.739 102.446 253.726 102.253 254.721 102.258ZM174.181 247.151H152.464C151.468 247.146 150.482 247.339 149.561 247.718C148.64 248.096 147.804 248.654 147.1 249.358C146.396 250.062 145.839 250.898 145.46 251.818C145.081 252.739 144.889 253.726 144.893 254.721V276.429C144.889 277.425 145.081 278.411 145.46 279.332C145.839 280.253 146.396 281.089 147.1 281.793C147.804 282.497 148.64 283.054 149.561 283.433C150.482 283.812 151.468 284.004 152.464 284H174.181C175.176 284.004 176.163 283.812 177.083 283.433C178.004 283.054 178.84 282.497 179.544 281.793C180.248 281.089 180.806 280.253 181.184 279.332C181.563 278.411 181.756 277.425 181.751 276.429V254.712C181.755 253.718 181.561 252.732 181.182 251.813C180.802 250.893 180.245 250.058 179.541 249.355C178.837 248.652 178.001 248.095 177.081 247.717C176.161 247.338 175.175 247.146 174.181 247.151ZM36.8581 174.181V152.463C36.8628 151.468 36.6702 150.482 36.2915 149.561C35.9127 148.64 35.3551 147.804 34.6512 147.1C33.9473 146.396 33.1109 145.839 32.1903 145.46C31.2697 145.081 30.2832 144.888 29.2877 144.893H7.57042C6.57495 144.888 5.58867 145.081 4.66807 145.46C3.74747 145.839 2.91083 146.396 2.20691 147.1C1.503 147.804 0.94574 148.64 0.566959 149.561C0.188177 150.482 -0.00461729 151.468 8.39514e-05 152.463V174.181C-0.00461729 175.176 0.188177 176.163 0.566959 177.083C0.94574 178.004 1.503 178.84 2.20691 179.544C2.91083 180.248 3.74747 180.806 4.66807 181.184C5.58867 181.563 6.57495 181.756 7.57042 181.751H29.2877C30.2832 181.756 31.2697 181.563 32.1903 181.184C33.1109 180.806 33.9473 180.248 34.6512 179.544C35.3551 178.84 35.9127 178.004 36.2915 177.083C36.6702 176.163 36.8628 175.176 36.8581 174.181ZM109.828 36.8581H131.545C132.541 36.8628 133.527 36.67 134.448 36.2912C135.369 35.9124 136.205 35.3551 136.909 34.6512C137.613 33.9473 138.17 33.1107 138.549 32.1901C138.928 31.2695 139.12 30.2829 139.116 29.2874V7.57042C139.119 6.57528 138.926 5.58922 138.547 4.66915C138.167 3.74908 137.61 2.9133 136.906 2.20962C136.203 1.50595 135.366 0.948326 134.446 0.569126C133.526 0.189925 132.541 -0.00343444 131.545 8.40659e-05H109.828C108.833 -0.00461717 107.846 0.187907 106.925 0.566688C106.005 0.94547 105.169 1.503 104.465 2.20691C103.761 2.91083 103.203 3.74719 102.825 4.6678C102.446 5.5884 102.253 6.57495 102.258 7.57042V29.2874C102.253 30.2829 102.446 31.2695 102.825 32.1901C103.203 33.1107 103.761 33.9473 104.465 34.6512C105.169 35.3551 106.005 35.9124 106.925 36.2912C107.846 36.67 108.833 36.8628 109.828 36.8581Z" fill="#075DA8"></path>
<circle cx="239" cy="220" r="17" fill="#00A1DF"></circle>
<circle cx="61" cy="239" r="17" fill="#00A1DF"></circle>
<circle cx="45" cy="62" r="17" fill="#00A1DF"></circle>
<circle cx="222" cy="45" r="17" fill="#00A1DF"></circle>
<defs>
<linearGradient id="paint0_linear_9269_438" x1="136.133" y1="183.391" x2="275.134" y2="183.391" gradientUnits="userSpaceOnUse">
<stop stop-color="#00A1DF"></stop>
<stop offset="1" stop-color="#075DA8"></stop>
</linearGradient>
<linearGradient id="paint1_linear_9269_438" x1="100.66" y1="275.125" x2="100.66" y2="136.125" gradientUnits="userSpaceOnUse">
<stop stop-color="#075DA8"></stop>
<stop offset="1" stop-color="#00A1DF"></stop>
</linearGradient>
<linearGradient id="paint2_linear_9269_438" x1="8.83044" y1="100.656" x2="147.858" y2="100.656" gradientUnits="userSpaceOnUse">
<stop stop-color="#075DA8"></stop>
<stop offset="1" stop-color="#00A1DF"></stop>
</linearGradient>
<linearGradient id="paint3_linear_9269_438" x1="183.326" y1="147.867" x2="183.326" y2="8.86652" gradientUnits="userSpaceOnUse">
<stop stop-color="#00A1DF"></stop>
<stop offset="1" stop-color="#075DA8"></stop>
</linearGradient>
</defs>
</svg>