<svg width="155" height="78" viewBox="0 0 155 78" fill="none" xmlns="http://www.w3.org/2000/svg">
<path d="M74.0789 31.0576H66.5585C66.0603 31.0576 65.668 31.4502 65.668 31.947C65.668 32.4409 66.0606 32.8356 66.5585 32.8356H69.4296V45.2986C69.4296 45.7933 69.8225 46.1856 70.3173 46.1856C70.794 46.1856 71.1861 45.7933 71.1861 45.2986V32.8356H74.0792C74.5754 32.8356 74.9677 32.4412 74.9677 31.947C74.9674 31.4502 74.5751 31.0576 74.0789 31.0576Z" fill="white"></path>
<path d="M80.2227 45.2996V31.8425C80.2227 31.3474 80.615 30.9551 81.0909 30.9551C81.5862 30.9551 81.9785 31.3474 81.9785 31.8425V45.2996C81.9785 45.7944 81.5862 46.1867 81.0909 46.1867C80.6147 46.1864 80.2227 45.7944 80.2227 45.2996Z" fill="white"></path>
<path d="M104.119 45.15L101.387 31.6627C101.304 31.2477 100.933 30.9775 100.54 30.9775C100.146 30.9775 99.8159 31.1853 99.69 31.5385L95.9461 42.5984L92.2022 31.5385C92.0774 31.1853 91.7466 30.9775 91.3531 30.9775C90.9608 30.9775 90.5867 31.248 90.5052 31.6627L87.7734 45.15C87.7734 45.1915 87.752 45.1703 87.752 45.2957C87.752 45.8543 88.1646 46.2083 88.6428 46.2083C89.0555 46.2083 89.4272 45.9172 89.5099 45.504L91.5797 35.2058L95.1185 45.6062C95.2444 45.9793 95.5741 46.208 95.9481 46.208C96.3288 46.208 96.6576 45.9526 96.7734 45.6062L100.31 35.2058L102.38 45.504C102.463 45.9172 102.837 46.2083 103.248 46.2083C103.728 46.2083 104.14 45.8543 104.14 45.2957C104.14 45.1703 104.119 45.1912 104.119 45.15Z" fill="white"></path>
<path d="M110.057 45.2996V31.8425C110.057 31.3474 110.449 30.9551 110.926 30.9551C111.421 30.9551 111.814 31.3474 111.814 31.8425V45.2996C111.814 45.7944 111.421 46.1867 110.926 46.1867C110.449 46.1864 110.057 45.7944 110.057 45.2996Z" fill="white"></path>
<path d="M117.688 44.3385C117.688 43.6951 118.183 43.447 118.575 43.447C119.364 43.447 119.712 44.4203 121.758 44.4203C123.291 44.4203 125.19 43.7361 125.19 41.8064C125.19 37.8834 117.936 39.3978 117.936 34.6212C117.936 32.2971 120.023 30.9893 122.317 30.9893C123.639 30.9893 125.066 31.4254 125.789 32.0487C126.059 32.2768 126.161 32.5043 126.161 32.7533C126.161 33.2724 125.708 33.6479 125.252 33.6479C125.066 33.6479 124.921 33.5835 124.756 33.4805C124.157 33.1073 123.578 32.775 122.463 32.775C121.057 32.775 119.712 33.2921 119.712 34.6441C119.712 37.8404 126.945 36.3039 126.945 41.8061C126.945 44.7735 124.302 46.1861 121.758 46.1861C120.766 46.1861 117.688 45.6269 117.688 44.3385Z" fill="white"></path>
<path d="M134.579 39.5106H139.145C139.621 39.5106 140.014 39.1177 140.014 38.643C140.014 38.1459 139.621 37.7533 139.145 37.7533H134.579V32.7743H139.145C139.621 32.7743 140.014 32.382 140.014 31.9061C140.014 31.4087 139.621 31.0176 139.145 31.0176H133.71C133.215 31.0176 132.822 31.409 132.822 31.9061V45.2991C132.822 45.7536 133.194 46.1862 133.71 46.1862C133.71 46.1862 133.71 46.1862 139.145 46.1862C139.621 46.1862 140.014 45.7939 140.014 45.2991C140.014 44.823 139.621 44.428 139.145 44.428H134.579V39.5106Z" fill="white"></path>
<path d="M38.5579 46.2625C34.3158 46.2625 30.8652 42.8125 30.8652 38.5715C30.8652 34.3299 34.3158 30.8779 38.5579 30.8779C42.7995 30.8779 46.2489 34.3299 46.2489 38.5715C46.2489 42.8125 42.7995 46.2625 38.5579 46.2625ZM38.5579 32.6344C35.285 32.6344 32.6205 35.298 32.6205 38.5715C32.6205 41.8445 35.285 44.5054 38.5579 44.5054C41.8292 44.5054 44.4924 41.8445 44.4924 38.5715C44.4924 35.298 41.8292 32.6344 38.5579 32.6344Z" fill="white"></path>
<path d="M150.677 39.4917C152.826 39.2889 154.55 37.4938 154.55 35.2745C154.55 32.9389 152.647 31.0176 150.29 31.0176H146.552C146.077 31.0176 145.684 31.4288 145.684 31.9061V45.2991C145.684 45.7939 146.077 46.1862 146.552 46.1862C147.047 46.1862 147.442 45.7939 147.442 45.2991V39.5109H148.54L152.958 45.8151C153.122 46.0632 153.394 46.1862 153.66 46.1862C154.155 46.1862 154.55 45.7748 154.55 45.2991C154.55 45.1126 154.486 44.9483 154.384 44.8021L150.677 39.4917ZM147.442 32.7944H150.29C151.677 32.7944 152.794 33.9098 152.794 35.2745C152.794 36.6375 151.677 37.7536 150.29 37.7536H147.442V32.7944Z" fill="white"></path>
<path d="M56.3032 31.0176H52.6461C52.1493 31.0176 51.7578 31.4288 51.7578 31.9061V45.2991C51.7578 45.7939 52.1493 46.1862 52.6461 46.1862C53.142 46.1862 53.5346 45.7939 53.5346 45.2991V40.6266H56.3032C58.9494 40.6266 61.0996 38.4776 61.0996 35.832C61.0996 33.167 58.9494 31.0176 56.3032 31.0176ZM56.3032 38.8699H53.5346V32.7743H56.3032C57.9787 32.7743 59.3426 34.1391 59.3426 35.832C59.3426 37.5075 57.9787 38.8699 56.3032 38.8699Z" fill="white"></path>
<path d="M20.7455 21.6018C21.3416 22.1969 22.1947 22.5382 23.0861 22.5382C23.4405 22.5382 23.7898 22.4796 24.1195 22.3748L25.6943 24.2691C26.3185 25.0184 27.3132 25.4658 28.3547 25.4658C28.9507 25.4658 29.5221 25.3173 30.007 25.0367L30.0528 25.01L31.0005 26.6492C31.0786 26.7841 31.2069 26.8825 31.3575 26.9228C31.4074 26.9362 31.4582 26.9426 31.5089 26.9426C31.6114 26.9426 31.7132 26.9159 31.8035 26.8636C33.1517 26.0828 34.6388 25.5448 36.2232 25.2639C36.3767 25.2369 36.5131 25.1498 36.6022 25.0221C36.6916 24.8945 36.7264 24.7366 36.6991 24.5831L34.4552 11.9144C35.7569 11.4254 36.6571 10.0705 36.5323 8.6591L36.0053 2.68891C35.8611 1.05548 34.7407 -0.153129 33.4749 0.0157563C32.9773 0.0822078 32.5252 0.361943 32.2016 0.803889C31.7379 1.43735 31.5655 2.32995 31.7286 3.25331L33.0875 10.9263C32.2895 10.8262 31.5716 10.2362 31.3653 9.46842L31.2016 8.85962C30.872 7.63331 29.8134 6.80977 28.5677 6.80977C28.265 6.80977 27.9638 6.86172 27.6698 6.9598L26.8005 4.57625C26.4084 3.50171 25.443 2.80759 24.3406 2.80759C23.901 2.80759 23.4715 2.91525 23.0635 3.12766L18.3887 5.56403C17.678 5.93517 17.1873 6.54803 17.0065 7.28973C16.8255 8.03173 16.9796 8.80245 17.4404 9.46L20.8236 14.284C21.4109 15.1223 22.4393 15.6429 23.5078 15.6429C24.0461 15.6429 24.5716 15.5109 25.0179 15.2657L25.1003 15.2221C26.5109 14.4459 27.104 12.6279 26.4224 11.1698L26.1551 10.5964C25.9581 10.1759 25.9424 9.72 26.1104 9.31259C26.268 8.93013 26.5747 8.63647 26.9702 8.47019L31.4387 20.7167C31.784 21.6642 31.3456 22.887 30.482 23.4047L29.1399 21.0841C28.6486 20.2344 27.7955 19.7269 26.8576 19.7269C26.2683 19.7269 25.6975 19.9266 25.2077 20.3032L24.4245 20.9039L19.3257 14.7729C18.6455 13.9575 17.7654 13.4709 16.9706 13.4709C16.5533 13.4709 16.1827 13.6079 15.8992 13.8676C15.5855 14.1554 15.4146 14.5579 15.4047 15.0312C15.3888 15.7906 15.7979 16.6617 16.499 17.3616L20.7455 21.6018ZM33.1496 1.49742C33.286 1.31113 33.4477 1.20434 33.6299 1.18025C33.656 1.17677 33.6821 1.17503 33.7082 1.17503C34.1815 1.17503 34.7471 1.79312 34.8353 2.79192L35.3623 8.7624C35.4331 9.55982 34.9569 10.3523 34.2445 10.722L32.8856 3.04844C32.7797 2.44806 32.8783 1.86827 33.1496 1.49742ZM25.0243 8.86426C24.7291 9.57985 24.7529 10.3718 25.0907 11.0931L25.3577 11.666C25.7753 12.5597 25.398 13.7167 24.5431 14.1871L24.4613 14.2303C24.1787 14.3855 23.849 14.4674 23.5078 14.4674C22.8166 14.4674 22.1567 14.1386 21.7855 13.609L18.4023 8.78504C18.1385 8.40867 18.0483 7.9763 18.1481 7.56744C18.2477 7.15915 18.5262 6.81732 18.9322 6.6052L23.6061 4.16912C23.8447 4.04493 24.0919 3.98196 24.3406 3.98196C24.9529 3.98196 25.4726 4.36354 25.6966 4.97844L26.5651 7.35938C25.8545 7.64172 25.3089 8.17334 25.0243 8.86426ZM32.5426 20.3137L28.072 8.06133C28.2357 8.00996 28.402 7.98414 28.5677 7.98414C29.2748 7.98414 29.8773 8.45829 30.067 9.16431L30.2307 9.77311C30.5946 11.1262 31.8827 12.1102 33.2991 12.1213L35.4421 24.2201C34.1328 24.5039 32.8885 24.9537 31.7298 25.5622L31.0708 24.422C32.4201 23.6235 33.08 21.7878 32.5426 20.3137ZM25.9232 21.2344C26.2067 21.0165 26.5297 20.9013 26.8576 20.9013C27.3785 20.9013 27.8399 21.1819 28.1228 21.6717L29.4652 23.9926L29.4188 24.0193C29.1123 24.1969 28.7444 24.2906 28.355 24.2906C27.6684 24.2906 26.9946 23.994 26.5973 23.5173L25.176 21.8075L25.9232 21.2344ZM16.6929 14.7332C16.7167 14.7114 16.7889 14.6455 16.9706 14.6455C17.3284 14.6455 17.9166 14.9177 18.4229 15.5245L23.2724 21.3557C22.6335 21.4068 21.9936 21.1871 21.576 20.7704L17.3289 16.53C16.8647 16.0663 16.5704 15.4877 16.5794 15.0556C16.582 14.9082 16.6206 14.7993 16.6929 14.7332Z" fill="#00A1DF"></path>
<path d="M40.7038 22.8881L43.3932 23.6136L42.8506 25.1095C42.74 25.4145 42.8976 25.7514 43.2023 25.8619C44.6729 26.3956 46.0406 27.1875 47.2677 28.2153C47.3777 28.3076 47.5115 28.3525 47.6447 28.3525C47.8124 28.3525 47.979 28.2809 48.0953 28.1425L51.7983 23.723C52.3169 23.1049 52.5238 22.3449 52.3665 21.6386C52.2092 20.9332 51.7009 20.3345 50.9708 19.9959L50.2398 19.6564L57.0689 7.70411C57.4691 7.00332 57.5463 6.22709 57.286 5.51846C57.026 4.81013 56.465 4.26865 55.7074 3.99385L47.6427 1.06534C47.3298 0.951301 47.0106 0.893555 46.6935 0.893555C45.4614 0.893555 44.4463 1.776 44.2258 3.03916L43.7223 5.90499L40.994 5.42329C40.1313 5.27181 39.286 5.52427 38.7094 6.10144C38.233 6.57879 37.9715 7.23924 37.9727 7.96092L37.9805 19.3334C37.9811 20.8891 39.203 22.4839 40.7038 22.8881ZM43.4173 14.4369L44.6758 7.26652L47.4047 7.74909C47.8519 7.82715 48.2088 8.06132 48.4096 8.40809C48.6101 8.75486 48.6354 9.18084 48.4804 9.6077L45.6126 17.5035L44.8259 17.1362C43.8828 16.6983 43.2377 15.4621 43.4173 14.4369ZM44.9335 22.8136L46.2791 19.11L48.586 20.1834L47.7465 21.6517C47.3304 22.3789 46.4047 22.8867 45.495 22.8867C45.3026 22.8867 45.1175 22.8632 44.9466 22.817L44.9335 22.8136ZM51.22 21.8943C51.2984 22.246 51.184 22.6273 50.8982 22.9682L47.5649 26.9463C46.5101 26.1298 45.3659 25.467 44.1515 24.9693L44.5316 23.9218L44.6402 23.9514C44.9123 24.0245 45.1999 24.0616 45.4956 24.0616C46.8273 24.0616 48.1421 23.3278 48.7668 22.2349L49.6554 20.6804L50.4766 21.0617C50.8776 21.248 51.1417 21.5434 51.22 21.8943ZM45.3827 3.2417C45.5075 2.52873 46.022 2.06821 46.6935 2.06821C46.8731 2.06821 47.0568 2.10216 47.2411 2.16919L55.3069 5.09828C55.7338 5.25324 56.0449 5.54603 56.1836 5.92356C56.3223 6.30138 56.2744 6.72678 56.0492 7.12143L49.1711 19.1596L46.6816 18.0015L49.5846 10.0084C49.8602 9.24933 49.8039 8.47193 49.4261 7.81931C49.0483 7.1667 48.4021 6.73055 47.6078 6.59185L44.879 6.10898L45.3827 3.2417ZM39.5405 6.93107C39.7834 6.68761 40.1223 6.55354 40.4946 6.55354C40.5913 6.55354 40.6905 6.56254 40.7897 6.57995L43.5186 7.06165L42.2598 14.2338C41.987 15.7929 42.8967 17.5357 44.3297 18.2011L45.2095 18.612L43.7952 22.5054L41.0094 21.7538C40.0048 21.4831 39.1554 20.3746 39.1549 19.3326L39.147 7.95947C39.1467 7.55119 39.2863 7.18614 39.5405 6.93107Z" fill="#00A1DF"></path>
<path d="M46.6805 53.762L48.0217 56.0808C48.5136 56.9302 49.3676 57.4371 50.306 57.4371C50.8954 57.4371 51.4665 57.2378 51.9557 56.862L52.7389 56.2628L57.8365 62.3925C58.5155 63.2077 59.3962 63.6943 60.1919 63.6943C60.6092 63.6943 60.9795 63.5573 61.2627 63.2982C61.5767 63.0103 61.7476 62.6079 61.7577 62.1343C61.774 61.3752 61.3657 60.5043 60.6655 59.8041L56.4184 55.5625C55.8224 54.9677 54.9689 54.6264 54.0775 54.6264C53.7226 54.6264 53.3727 54.6847 53.0424 54.7898L51.4694 52.8978C50.846 52.148 49.8522 51.7005 48.8104 51.7005C48.2144 51.7005 47.6427 51.8491 47.1578 52.1294L47.11 52.157L46.1605 50.5163C45.998 50.2354 45.6387 50.1391 45.3581 50.3018C44.0082 51.0818 42.521 51.6193 40.9381 51.8996C40.7849 51.9269 40.6482 52.0139 40.5591 52.1413C40.4697 52.269 40.4349 52.4268 40.4622 52.5803L42.7059 65.2514C41.4067 65.7412 40.5075 67.0955 40.6311 68.5078L41.158 74.4792C41.2933 76.0105 42.2805 77.1654 43.4542 77.1654C43.5314 77.1654 43.6092 77.1602 43.6867 77.15C44.1841 77.0844 44.6362 76.8053 44.9594 76.3639C45.4237 75.7301 45.5961 74.8367 45.4321 73.9127L44.0735 66.2392C44.8724 66.3399 45.5897 66.9298 45.7951 67.6991L45.9605 68.3073C46.2899 69.5327 47.347 70.356 48.5913 70.356C48.8952 70.356 49.1978 70.3035 49.4912 70.2051L50.3594 72.5907C50.7526 73.6646 51.7186 74.359 52.8199 74.359C53.2595 74.359 53.6892 74.2511 54.0969 74.0387L58.7735 71.6014C59.4859 71.2289 59.9775 70.6148 60.1577 69.8725C60.3376 69.1311 60.1826 68.3616 59.7221 67.7058L56.3386 62.8798C55.7507 62.0429 54.7214 61.5229 53.6521 61.5229C53.1144 61.5229 52.5906 61.6546 52.1249 61.9103L52.0648 61.9454C50.6522 62.721 50.0588 64.539 50.7419 65.9986L51.0085 66.5688C51.205 66.989 51.2207 67.4449 51.0529 67.8517C50.8954 68.2336 50.5889 68.527 50.1911 68.6941L45.7232 56.4508C45.3779 55.5042 45.8166 54.2814 46.6805 53.762ZM55.5876 56.3936L59.8344 60.6349C60.2981 61.0986 60.5918 61.6769 60.5825 62.1087C60.5793 62.2564 60.5407 62.3653 60.4682 62.4317C60.2163 62.6615 59.4145 62.4512 58.739 61.6404L53.8889 55.8083C54.5264 55.7561 55.1695 55.9763 55.5876 56.3936ZM47.744 53.1471C48.0516 52.9692 48.4201 52.8752 48.8098 52.8752C49.5063 52.8752 50.1627 53.1642 50.5651 53.6485L51.9865 55.3583L51.2401 55.9293C50.9569 56.147 50.6336 56.2622 50.3054 56.2622C49.7912 56.2622 49.3174 55.974 49.0382 55.492L47.6973 53.1738L47.744 53.1471ZM44.0114 75.6692C43.8756 75.8549 43.7145 75.9608 43.5323 75.9849C43.5062 75.9884 43.4801 75.9901 43.454 75.9901C42.9813 75.9901 42.4163 75.3729 42.3281 74.3759L41.8011 68.4051C41.7309 67.6013 42.2131 66.803 42.916 66.4391L44.2755 74.1176C44.3799 74.709 44.2789 75.3039 44.0114 75.6692ZM52.1385 68.2986C52.4336 67.5839 52.4101 66.7926 52.0723 66.07L51.8057 65.4995C51.3872 64.6058 51.7645 63.4491 52.642 62.9671L52.702 62.932C52.9826 62.7782 53.3111 62.6964 53.6515 62.6964C54.3442 62.6964 55.0052 63.0251 55.3761 63.5533L58.7599 68.3793C59.0236 68.7548 59.1145 69.186 59.0155 69.594C58.9163 70.0025 58.6368 70.3455 58.2294 70.5585L53.5534 72.9955C53.3152 73.1197 53.0683 73.1829 52.8196 73.1829C52.2076 73.1829 51.6876 72.8008 51.4627 72.1864L50.5953 69.8032C51.3074 69.5214 51.8536 68.9895 52.1385 68.2986ZM44.6193 56.8527L49.0893 69.1024C48.9248 69.1543 48.7576 69.1805 48.5913 69.1805C47.8856 69.1805 47.2846 68.7069 47.0946 68.0003L46.9295 67.3929C46.5676 66.0395 45.2801 65.055 43.862 65.0433L41.7193 52.9428C43.0274 52.6593 44.2714 52.2101 45.4313 51.6021L46.0917 52.744C44.7418 53.5443 44.0816 55.3806 44.6193 56.8527Z" fill="#00A1DF"></path>
<path d="M36.4591 54.2774L33.7694 53.5516L34.3126 52.0531C34.4232 51.7485 34.2656 51.4116 33.9609 51.301C32.4842 50.7644 31.1166 49.9725 29.8958 48.947C29.7765 48.8466 29.623 48.799 29.4666 48.8115C29.3113 48.8252 29.1677 48.9 29.0676 49.0196L25.3617 53.4431C24.8437 54.06 24.6368 54.8189 24.7935 55.5246C24.9505 56.2309 25.4595 56.8307 26.1904 57.1705L26.9199 57.5091L20.0923 69.4614C19.6927 70.1628 19.6158 70.939 19.8764 71.6476C20.1367 72.3554 20.6973 72.8966 21.4547 73.1711L29.5203 76.1005C29.8316 76.2134 30.1497 76.2705 30.4651 76.2705C31.6981 76.2705 32.714 75.3878 32.9354 74.124L33.438 71.2585L36.1686 71.7414C36.3349 71.7707 36.5026 71.7852 36.6669 71.7852C37.352 71.7852 37.9852 71.529 38.45 71.0638C38.9271 70.5862 39.1891 69.9251 39.1882 69.2026L39.1824 57.8309C39.1821 56.2486 37.9854 54.6877 36.4591 54.2774ZM33.7456 62.7283L32.4851 69.897L29.7588 69.4164C29.3122 69.3378 28.9559 69.1036 28.7553 68.7566C28.5548 68.4098 28.5296 67.9835 28.6848 67.5567L31.5504 59.6631L32.3371 60.0279C33.2799 60.4669 33.9249 61.704 33.7456 62.7283ZM32.2294 54.3522L30.8835 58.0576L28.5751 56.9827L29.4158 55.5138C29.8302 54.7864 30.7556 54.2783 31.6664 54.2783C31.8585 54.2783 32.0428 54.3018 32.2143 54.3482L32.2294 54.3522ZM25.9409 55.2698C25.8628 54.9187 25.9769 54.5383 26.2624 54.1982L29.598 50.2163C30.6497 51.0317 31.7938 51.6945 33.0123 52.1936L32.6316 53.2438L32.5219 53.2139C32.25 53.1405 31.9624 53.103 31.6667 53.103C30.3328 53.103 29.0183 53.838 28.3958 54.9309L27.5061 56.4851L26.6861 56.1044C26.2836 55.9178 26.0189 55.6212 25.9409 55.2698ZM31.779 73.9209C31.654 74.6345 31.1386 75.0956 30.466 75.0956C30.2872 75.0956 30.1035 75.0619 29.9213 74.996L21.856 72.0667C21.4294 71.912 21.1184 71.6192 20.9794 71.242C20.8404 70.8639 20.8879 70.4382 21.1128 70.0435L27.9893 58.0056L30.4802 59.1658L27.5798 67.1553C27.3039 67.9136 27.3599 68.6913 27.7374 69.3442C28.1146 69.9971 28.76 70.4338 29.5545 70.5731L32.2813 71.0539L31.779 73.9209ZM37.6195 70.2333C37.314 70.5394 36.8543 70.6686 36.3735 70.5841L33.642 70.1013L34.9026 62.9312C35.175 61.3738 34.2662 59.6306 32.8321 58.9621L31.9526 58.5544L33.3672 54.6598L36.1532 55.4117C37.1578 55.6819 38.0075 56.7901 38.0084 57.8315L38.0142 69.2031C38.0147 69.6123 37.8746 69.9779 37.6195 70.2333Z" fill="#00A1DF"></path>
<path d="M3.03852 32.9361L5.90348 33.4396L5.42207 36.1699C5.28278 36.9644 5.47285 37.7198 5.95745 38.2969C6.44147 38.8732 7.15184 39.1907 7.95709 39.1907H7.95941L19.3308 39.184C20.9134 39.1826 22.4749 37.9856 22.8858 36.4592L23.6138 33.7695L25.1086 34.3122C25.1747 34.3362 25.2423 34.3476 25.3091 34.3476C25.5491 34.3476 25.7745 34.1993 25.8613 33.9605C26.3975 32.4843 27.1889 31.117 28.2135 29.8962C28.3139 29.7766 28.3624 29.6225 28.3487 29.467C28.3351 29.3115 28.2602 29.1681 28.141 29.068L23.7218 25.365C23.238 24.9596 22.6821 24.7452 22.1139 24.7452C21.2082 24.7452 20.4157 25.2864 19.9938 26.1932L19.6543 26.9233L7.7026 20.0941C7.28271 19.855 6.81987 19.7285 6.36487 19.7285C5.30425 19.7285 4.37248 20.4075 3.99118 21.4583L1.06267 29.5213C0.787579 30.2801 0.843874 31.0572 1.22082 31.7089C1.59806 32.3604 2.24371 32.7963 3.03852 32.9361ZM22.815 32.2188L22.8123 32.2284L19.1076 30.8837L20.1807 28.577L21.6513 29.4183C22.5523 29.933 23.0854 31.2153 22.815 32.2188ZM17.5017 31.5505L17.1361 32.3372C17.0882 32.4396 17.0308 32.5389 16.9646 32.6343C16.5024 33.3018 15.624 33.775 14.7862 33.775C14.6658 33.775 14.5477 33.7652 14.4357 33.7454L7.26501 32.4858L7.74584 29.7589C7.87149 29.0445 8.38714 28.5825 9.05978 28.5825C9.23911 28.5825 9.4228 28.6162 9.6059 28.6826L17.5017 31.5505ZM21.7514 36.1528C21.481 37.158 20.3719 38.0079 19.3299 38.0088L7.95854 38.0155L7.95709 38.6028V38.0155C7.5047 38.0155 7.11411 37.8469 6.85701 37.541C6.59933 37.2343 6.50067 36.8196 6.57902 36.3733L7.06043 33.6427L14.2326 34.9027C14.4119 34.934 14.5979 34.95 14.7859 34.95C15.7531 34.95 16.7342 34.5292 17.4388 33.8676C17.7591 33.5667 18.022 33.2161 18.2008 32.8328L18.6097 31.953L22.5048 33.3668L21.7514 36.1528ZM21.0591 26.6882C21.2863 26.1996 21.6708 25.9195 22.1139 25.9195C22.4023 25.9195 22.6971 26.0391 22.9667 26.2651L26.9442 29.5982C26.1294 30.6495 25.4672 31.7934 24.9681 33.0113L23.9206 32.6309L23.9493 32.5241C24.3613 30.9954 23.608 29.1832 22.2343 28.3983L20.6778 27.508L21.0591 26.6882ZM2.1671 29.9214L5.09561 21.8587C5.30948 21.2691 5.79611 20.9029 6.36516 20.9029C6.62052 20.9029 6.87501 20.9743 7.12079 21.1141L19.1572 27.9917L17.9991 30.4812L10.0066 27.5782C9.6947 27.465 9.37608 27.4079 9.05978 27.4079C7.82709 27.4079 6.81088 28.2912 6.5886 29.5555L6.10776 32.2826L3.24222 31.7792C2.79476 31.7005 2.43813 31.4666 2.23791 31.1202C2.03768 30.7737 2.01243 30.348 2.1671 29.9214Z" fill="#00A1DF"></path>
<path d="M22.3761 53.0434L24.2663 51.4706C25.4828 50.4599 25.8275 48.5247 25.0356 47.1585L25.0083 47.1112L26.6499 46.1615C26.8426 46.05 26.9522 45.8417 26.9424 45.6261C26.9383 45.5324 26.9116 45.4398 26.8637 45.3568C26.084 44.0141 25.546 42.5281 25.264 40.9402C25.2074 40.6207 24.9018 40.4072 24.5832 40.4643L11.9156 42.7092C11.4313 41.4083 10.0947 40.5079 8.6563 40.6321L2.68785 41.159C1.75347 41.2414 0.935737 41.6399 0.44446 42.2524C0.101756 42.6799 -0.0508791 43.1894 0.014992 43.6891C0.157181 44.7512 1.21286 45.4929 2.58223 45.4929C2.80393 45.4929 3.02969 45.4729 3.25284 45.4331L10.9284 44.0768C10.826 44.8644 10.2445 45.5886 9.47055 45.797L8.85798 45.9604C8.08842 46.1676 7.46859 46.6591 7.11254 47.3448C6.76896 48.0064 6.71731 48.7656 6.9599 49.4927L4.57868 50.3613C3.82507 50.6358 3.25777 51.1796 2.98152 51.8917C2.70526 52.6035 2.75721 53.3867 3.12777 54.0979L5.56616 58.7713C6.04206 59.6833 6.91405 60.2277 7.89835 60.2277C8.44824 60.2277 8.98856 60.0524 9.46098 59.7208L14.2835 56.3387C15.5925 55.4217 16.0301 53.537 15.262 52.1436L15.2202 52.0655C14.6842 51.089 13.5993 50.4582 12.4556 50.4582C12.0041 50.4582 11.5712 50.5528 11.1678 50.7402L10.5959 51.0078C10.3695 51.1134 10.1342 51.1674 9.89654 51.1674C9.26975 51.1671 8.72101 50.7864 8.47059 50.1927L20.7168 45.7262C20.9321 45.6476 21.1654 45.6081 21.4106 45.6081C22.2205 45.6081 23.0153 46.0393 23.4022 46.6826L21.083 48.0224C20.3886 48.4252 19.9246 49.0598 19.7763 49.8099C19.6284 50.5586 19.8152 51.3206 20.3022 51.9552L20.9037 52.7399L14.7742 57.8375C14.0113 58.4727 13.5255 59.3038 13.4745 60.06C13.4426 60.5324 13.5781 60.9485 13.8671 61.264C14.1648 61.5878 14.5824 61.759 15.0751 61.759C15.8226 61.759 16.6772 61.3504 17.3612 60.6659L21.6025 56.4185C22.4536 55.5662 22.7469 54.2099 22.3761 53.0434ZM3.04739 44.2764C2.89127 44.3043 2.73457 44.3182 2.58194 44.3182C1.84226 44.3182 1.23927 43.981 1.17949 43.535C1.15541 43.3519 1.21634 43.168 1.36085 42.9878C1.64407 42.6346 2.19222 42.3824 2.79116 42.3296L8.75961 41.8027C8.81329 41.7977 8.86669 41.7957 8.91979 41.7957C9.68093 41.7957 10.3925 42.2617 10.7285 42.9196L3.04739 44.2764ZM9.89567 52.3426C10.3066 52.3426 10.7093 52.2518 11.0927 52.0725L11.6635 51.8055C11.9092 51.6912 12.1756 51.6334 12.4551 51.6334C13.1762 51.6334 13.8572 52.0252 14.1869 52.6255L14.2292 52.7045C14.7115 53.5797 14.4274 54.8031 13.6085 55.3768L8.78543 58.7591C8.5115 58.9515 8.20449 59.0531 7.89748 59.0531C7.35919 59.0531 6.87662 58.7449 6.60704 58.2281L4.16894 53.555C3.95711 53.1487 3.92432 52.7091 4.07637 52.3171C4.22872 51.9248 4.54995 51.6221 4.98087 51.4651L7.3618 50.5969C7.78373 51.6601 8.76947 52.3423 9.89567 52.3426ZM21.4101 44.4334C21.0273 44.4334 20.6588 44.497 20.3138 44.6226L8.06085 49.0914C7.93143 48.6788 7.96393 48.2537 8.15458 47.8866C8.35713 47.4966 8.71492 47.2157 9.16151 47.0953L9.77437 46.9319C11.1394 46.5642 12.1034 45.2564 12.1193 43.8664L24.2211 41.7217C24.5054 43.0333 24.9555 44.277 25.5634 45.4325L24.421 46.0936C23.8226 45.084 22.6445 44.4334 21.4101 44.4334ZM20.9281 50.0383C21.0099 49.6245 21.274 49.2699 21.6709 49.0398L23.9909 47.6994L24.0179 47.7467C24.5275 48.6257 24.2974 49.9173 23.5148 50.5676L21.8067 51.9886L21.2333 51.2408C20.9554 50.8775 20.8468 50.4506 20.9281 50.0383ZM20.7705 55.5892L16.5292 59.8365C16.0748 60.291 15.5037 60.5849 15.0742 60.5849C14.917 60.5849 14.8018 60.546 14.7321 60.4703C14.6651 60.3972 14.6361 60.2858 14.6459 60.1398C14.675 59.7106 15.0203 59.1616 15.5252 58.7411L21.3578 53.8904C21.4109 54.5143 21.204 55.1551 20.7705 55.5892Z" fill="#00A1DF"></path>
</svg>