<svg xmlns="http://www.w3.org/2000/svg" viewBox="0 0 62 78" fill="none">
  <path d="M38.5579 46.2625C34.3158 46.2625 30.8652 42.8125 30.8652 38.5715C30.8652 34.3299 34.3158 30.8779 38.5579 30.8779C42.7995 30.8779 46.2489 34.3299 46.2489 38.5715C46.2489 42.8125 42.7995 46.2625 38.5579 46.2625ZM38.5579 32.6344C35.285 32.6344 32.6205 35.298 32.6205 38.5715C32.6205 41.8445 35.285 44.5054 38.5579 44.5054C41.8292 44.5054 44.4924 41.8445 44.4924 38.5715C44.4924 35.298 41.8292 32.6344 38.5579 32.6344Z" fill="#0E273A"/>
  <path d="M20.7455 21.6018C21.3416 22.1969 22.1947 22.5382 23.0861 22.5382C23.4405 22.5382 23.7898 22.4796 24.1195 22.3748L25.6943 24.2691C26.3185 25.0184 27.3132 25.4658 28.3547 25.4658C28.9507 25.4658 29.5221 25.3173 30.007 25.0367L30.0528 25.01L31.0005 26.6492C31.0786 26.7841 31.2069 26.8825 31.3575 26.9228C31.4074 26.9362 31.4582 26.9426 31.5089 26.9426C31.6114 26.9426 31.7132 26.9159 31.8035 26.8636C33.1517 26.0828 34.6388 25.5448 36.2232 25.2639C36.3767 25.2369 36.5131 25.1498 36.6022 25.0221C36.6916 24.8945 36.7264 24.7366 36.6991 24.5831L34.4552 11.9144C35.7569 11.4254 36.6571 10.0705 36.5323 8.6591L36.0053 2.68891C35.8611 1.05548 34.7407 -0.153129 33.4749 0.0157563C32.9773 0.0822078 32.5252 0.361943 32.2016 0.803889C31.7379 1.43735 31.5655 2.32995 31.7286 3.25331L33.0875 10.9263C32.2895 10.8262 31.5716 10.2362 31.3653 9.46842L31.2016 8.85962C30.872 7.63331 29.8134 6.80977 28.5677 6.80977C28.265 6.80977 27.9638 6.86172 27.6698 6.9598L26.8005 4.57625C26.4084 3.50171 25.443 2.80759 24.3406 2.80759C23.901 2.80759 23.4715 2.91525 23.0635 3.12766L18.3887 5.56403C17.678 5.93517 17.1873 6.54803 17.0065 7.28973C16.8255 8.03173 16.9796 8.80245 17.4404 9.46L20.8236 14.284C21.4109 15.1223 22.4393 15.6429 23.5078 15.6429C24.0461 15.6429 24.5716 15.5109 25.0179 15.2657L25.1003 15.2221C26.5109 14.4459 27.104 12.6279 26.4224 11.1698L26.1551 10.5964C25.9581 10.1759 25.9424 9.72 26.1104 9.31259C26.268 8.93013 26.5747 8.63647 26.9702 8.47019L31.4387 20.7167C31.784 21.6642 31.3456 22.887 30.482 23.4047L29.1399 21.0841C28.6486 20.2344 27.7955 19.7269 26.8576 19.7269C26.2683 19.7269 25.6975 19.9266 25.2077 20.3032L24.4245 20.9039L19.3257 14.7729C18.6455 13.9575 17.7654 13.4709 16.9706 13.4709C16.5533 13.4709 16.1827 13.6079 15.8992 13.8676C15.5855 14.1554 15.4146 14.5579 15.4047 15.0312C15.3888 15.7906 15.7979 16.6617 16.499 17.3616L20.7455 21.6018Z" fill="#00A1DF"/>
  <path d="M40.7038 22.8881L43.3932 23.6136L42.8506 25.1095C42.74 25.4145 42.8976 25.7514 43.2023 25.8619C44.6729 26.3956 46.0406 27.1875 47.2677 28.2153C47.3777 28.3076 47.5115 28.3525 47.6447 28.3525C47.8124 28.3525 47.979 28.2809 48.0953 28.1425L51.7983 23.723C52.3169 23.1049 52.5238 22.3449 52.3665 21.6386C52.2092 20.9332 51.7009 20.3345 50.9708 19.9959L50.2398 19.6564L57.0689 7.70411C57.4691 7.00332 57.5463 6.22709 57.286 5.51846C57.026 4.81013 56.465 4.26865 55.7074 3.99385L47.6427 1.06534C47.3298 0.951301 47.0106 0.893555 46.6935 0.893555C45.4614 0.893555 44.4463 1.776 44.2258 3.03916L43.7223 5.90499L40.994 5.42329C40.1313 5.27181 39.286 5.52427 38.7094 6.10144C38.233 6.57879 37.9715 7.23924 37.9727 7.96092L37.9805 19.3334C37.9811 20.8891 39.203 22.4839 40.7038 22.8881Z" fill="#00A1DF"/>
  <path d="M46.6805 53.762L48.0217 56.0808C48.5136 56.9302 49.3676 57.4371 50.306 57.4371C50.8954 57.4371 51.4665 57.2378 51.9557 56.862L52.7389 56.2628L57.8365 62.3925C58.5155 63.2077 59.3962 63.6943 60.1919 63.6943C60.6092 63.6943 60.9795 63.5573 61.2627 63.2982C61.5767 63.0103 61.7476 62.6079 61.7577 62.1343C61.774 61.3752 61.3657 60.5043 60.6655 59.8041L56.4184 55.5625C55.8224 54.9677 54.9689 54.6264 54.0775 54.6264C53.7226 54.6264 53.3727 54.6847 53.0424 54.7898L51.4694 52.8978C50.846 52.148 49.8522 51.7005 48.8104 51.7005C48.2144 51.7005 47.6427 51.8491 47.1578 52.1294L47.11 52.157L46.1605 50.5163C45.998 50.2354 45.6387 50.1391 45.3581 50.3018C44.0082 51.0818 42.521 51.6193 40.9381 51.8996C40.7849 51.9269 40.6482 52.0139 40.5591 52.1413C40.4697 52.269 40.4349 52.4268 40.4622 52.5803L42.7059 65.2514C41.4067 65.7412 40.5075 67.0955 40.6311 68.5078L41.158 74.4792C41.2933 76.0105 42.2805 77.1654 43.4542 77.1654C43.5314 77.1654 43.6092 77.1602 43.6867 77.15C44.1841 77.0844 44.6362 76.8053 44.9594 76.3639C45.4237 75.7301 45.5961 74.8367 45.4321 73.9127L44.0735 66.2392C44.8724 66.3399 45.5897 66.9298 45.7951 67.6991L45.9605 68.3073C46.2899 69.5327 47.347 70.356 48.5913 70.356C48.8952 70.356 49.1978 70.3035 49.4912 70.2051L50.3594 72.5907C50.7526 73.6646 51.7186 74.359 52.8199 74.359C53.2595 74.359 53.6892 74.2511 54.0969 74.0387L58.7735 71.6014C59.4859 71.2289 59.9775 70.6148 60.1577 69.8725C60.3376 69.1311 60.1826 68.3616 59.7221 67.7058L56.3386 62.8798C55.7507 62.0429 54.7214 61.5229 53.6521 61.5229C53.1144 61.5229 52.5906 61.6546 52.1249 61.9103L52.0648 61.9454C50.6522 62.721 50.0588 64.539 50.7419 65.9986L51.0085 66.5688C51.205 66.989 51.2207 67.4449 51.0529 67.8517C50.8954 68.2336 50.5889 68.527 50.1911 68.6941L45.7232 56.4508C45.3779 55.5042 45.8166 54.2814 46.6805 53.762Z" fill="#00A1DF"/>
  <path d="M36.4591 54.2774L33.7694 53.5516L34.3126 52.0531C34.4232 51.7485 34.2656 51.4116 33.9609 51.301C32.4842 50.7644 31.1166 49.9725 29.8958 48.947C29.7765 48.8466 29.623 48.799 29.4666 48.8115C29.3113 48.8252 29.1677 48.9 29.0676 49.0196L25.3617 53.4431C24.8437 54.06 24.6368 54.8189 24.7935 55.5246C24.9505 56.2309 25.4595 56.8307 26.1904 57.1705L26.9199 57.5091L20.0923 69.4614C19.6927 70.1628 19.6158 70.939 19.8764 71.6476C20.1367 72.3554 20.6973 72.8966 21.4547 73.1711L29.5203 76.1005C29.8316 76.2134 30.1497 76.2705 30.4651 76.2705C31.6981 76.2705 32.714 75.3878 32.9354 74.124L33.438 71.2585L36.1686 71.7414C36.3349 71.7707 36.5026 71.7852 36.6669 71.7852C37.352 71.7852 37.9852 71.529 38.45 71.0638C38.9271 70.5862 39.1891 69.9251 39.1882 69.2026L39.1824 57.8309C39.1821 56.2486 37.9854 54.6877 36.4591 54.2774Z" fill="#00A1DF"/>
  <path d="M3.03852 32.9361L5.90348 33.4396L5.42207 36.1699C5.28278 36.9644 5.47285 37.7198 5.95745 38.2969C6.44147 38.8732 7.15184 39.1907 7.95709 39.1907H7.95941L19.3308 39.184C20.9134 39.1826 22.4749 37.9856 22.8858 36.4592L23.6138 33.7695L25.1086 34.3122C25.1747 34.3362 25.2423 34.3476 25.3091 34.3476C25.5491 34.3476 25.7745 34.1993 25.8613 33.9605C26.3975 32.4843 27.1889 31.117 28.2135 29.8962C28.3139 29.7766 28.3624 29.6225 28.3487 29.467C28.3351 29.3115 28.2602 29.1681 28.141 29.068L23.7218 25.365C23.238 24.9596 22.6821 24.7452 22.1139 24.7452C21.2082 24.7452 20.4157 25.2864 19.9938 26.1932L19.6543 26.9233L7.7026 20.0941C7.28271 19.855 6.81987 19.7285 6.36487 19.7285C5.30425 19.7285 4.37248 20.4075 3.99118 21.4583L1.06267 29.5213C0.787579 30.2801 0.843874 31.0572 1.22082 31.7089C1.59806 32.3604 2.24371 32.7963 3.03852 32.9361Z" fill="#00A1DF"/>
  <path d="M22.3761 53.0434L24.2663 51.4706C25.4828 50.4599 25.8275 48.5247 25.0356 47.1585L25.0083 47.1112L26.6499 46.1615C26.8426 46.05 26.9522 45.8417 26.9424 45.6261C26.9383 45.5324 26.9116 45.4398 26.8637 45.3568C26.084 44.0141 25.546 42.5281 25.264 40.9402C25.2074 40.6207 24.9018 40.4072 24.5832 40.4643L11.9156 42.7092C11.4313 41.4083 10.0947 40.5079 8.6563 40.6321L2.68785 41.159C1.75347 41.2414 0.935737 41.6399 0.44446 42.2524C0.101756 42.6799 -0.0508791 43.1894 0.014992 43.6891C0.157181 44.7512 1.21286 45.4929 2.58223 45.4929C2.80393 45.4929 3.02969 45.4729 3.25284 45.4331L10.9284 44.0768C10.826 44.8644 10.2445 45.5886 9.47055 45.797L8.85798 45.9604C8.08842 46.1676 7.46859 46.6591 7.11254 47.3448C6.76896 48.0064 6.71731 48.7656 6.9599 49.4927L4.57868 50.3613C3.82507 50.6358 3.25777 51.1796 2.98152 51.8917C2.70526 52.6035 2.75721 53.3867 3.12777 54.0979L5.56616 58.7713C6.04206 59.6833 6.91405 60.2277 7.89835 60.2277C8.44824 60.2277 8.98856 60.0524 9.46098 59.7208L14.2835 56.3387C15.5925 55.4217 16.0301 53.537 15.262 52.1436L15.2202 52.0655C14.6842 51.089 13.5993 50.4582 12.4556 50.4582C12.0041 50.4582 11.5712 50.5528 11.1678 50.7402L10.5959 51.0078C10.3695 51.1134 10.1342 51.1674 9.89654 51.1674C9.26975 51.1671 8.72101 50.7864 8.47059 50.1927L20.7168 45.7262C20.9321 45.6476 21.1654 45.6081 21.4106 45.6081C22.2205 45.6081 23.0153 46.0393 23.4022 46.6826L21.083 48.0224C20.3886 48.4252 19.9246 49.0598 19.7763 49.8099C19.6284 50.5586 19.8152 51.3206 20.3022 51.9552L20.9037 52.7399L14.7742 57.8375C14.0113 58.4727 13.5255 59.3038 13.4745 60.06C13.4426 60.5324 13.5781 60.9485 13.8671 61.264C14.1648 61.5878 14.5824 61.759 15.0751 61.759C15.8226 61.759 16.6772 61.3504 17.3612 60.6659L21.6025 56.4185C22.4536 55.5662 22.7469 54.2099 22.3761 53.0434Z" fill="#00A1DF"/>
</svg>
