<svg width="284" height="284" viewBox="0 0 284 284" fill="none" xmlns="http://www.w3.org/2000/svg">
<path d="M255.822 135.797C255.815 142.101 253.308 148.144 248.85 152.601C244.393 157.059 238.349 159.566 232.046 159.573H171.607C166.928 159.594 162.298 160.536 157.983 162.347C153.668 164.157 149.752 166.799 146.458 170.123C143.164 173.446 140.557 177.386 138.785 181.718C137.014 186.049 136.113 190.686 136.134 195.366C136.155 200.045 137.098 204.675 138.908 208.99C140.718 213.305 143.36 217.222 146.684 220.516C150.007 223.81 153.947 226.417 158.278 228.188C162.61 229.959 167.247 230.86 171.927 230.839H203.451C206.012 230.839 208.468 229.822 210.279 228.011C212.089 226.2 213.107 223.744 213.107 221.183C213.107 218.622 212.089 216.166 210.279 214.355C208.468 212.545 206.012 211.527 203.451 211.527H171.607C169.43 211.562 167.267 211.161 165.247 210.348C163.227 209.536 161.39 208.327 159.843 206.795C158.296 205.262 157.07 203.436 156.239 201.424C155.407 199.411 154.986 197.253 155.001 195.075C155.015 192.897 155.464 190.745 156.322 188.743C157.179 186.742 158.428 184.932 159.995 183.419C161.562 181.907 163.415 180.723 165.445 179.937C167.476 179.15 169.643 178.778 171.82 178.841H232.046C243.471 178.831 254.425 174.289 262.503 166.21C270.582 158.132 275.125 147.177 275.134 135.752H255.822V135.797Z" fill="url(#paint0_linear_9269_85)"></path>
<path d="M124.383 232.055V171.599C124.362 166.92 123.42 162.29 121.61 157.975C119.8 153.659 117.158 149.743 113.834 146.449C110.51 143.155 106.57 140.548 102.239 138.777C97.9078 137.005 93.2701 136.105 88.5907 136.125C83.9113 136.146 79.2817 137.089 74.9665 138.899C70.6513 140.709 66.735 143.351 63.441 146.675C60.147 149.999 57.5399 153.939 55.7686 158.27C53.9972 162.601 53.0963 167.239 53.1173 171.918V203.442C53.1173 206.003 54.1346 208.459 55.9454 210.27C57.7563 212.081 60.2122 213.098 62.7731 213.098C65.3341 213.098 67.7902 212.081 69.6011 210.27C71.4119 208.459 72.4292 206.003 72.4292 203.442V171.599C72.3947 169.422 72.7956 167.259 73.6082 165.239C74.4209 163.219 75.6288 161.381 77.1614 159.834C78.694 158.287 80.5202 157.062 82.5328 156.23C84.5454 155.399 86.7038 154.978 88.8813 154.992C91.0589 155.006 93.2118 155.455 95.2134 156.313C97.215 157.171 99.0251 158.42 100.537 159.987C102.05 161.553 103.234 163.407 104.02 165.437C104.806 167.468 105.179 169.635 105.116 171.812V232.038C105.125 243.462 109.668 254.416 117.746 262.495C125.825 270.574 136.779 275.116 148.204 275.125V255.822C141.895 255.825 135.843 253.323 131.376 248.867C126.91 244.411 124.395 238.364 124.383 232.055Z" fill="url(#paint1_linear_9269_85)"></path>
<path d="M112.082 53.1178H80.5581C77.9972 53.1178 75.5413 54.1351 73.7304 55.9459C71.9196 57.7568 70.9023 60.2127 70.9023 62.7736C70.9023 65.3345 71.9196 67.7907 73.7304 69.6015C75.5413 71.4124 77.9972 72.4297 80.5581 72.4297H112.357C114.535 72.3952 116.697 72.796 118.717 73.6087C120.738 74.4213 122.575 75.6293 124.122 77.1619C125.669 78.6945 126.894 80.5206 127.726 82.5332C128.557 84.5458 128.978 86.7043 128.964 88.8818C128.95 91.0593 128.501 93.2122 127.643 95.2138C126.785 97.2154 125.536 99.0255 123.97 100.538C122.403 102.05 120.55 103.234 118.519 104.02C116.488 104.807 114.321 105.179 112.144 105.116H51.9186C40.4938 105.126 29.5398 109.668 21.4612 117.747C13.3827 125.825 8.83985 136.78 8.83044 148.204H28.1427C28.1497 141.901 30.6568 135.857 35.1142 131.4C39.5715 126.942 45.615 124.435 51.9186 124.428H112.357C121.815 124.386 130.868 120.588 137.526 113.871C144.183 107.153 147.9 98.0663 147.857 88.6088C147.815 79.1512 144.017 70.0979 137.3 63.4404C130.582 56.7829 121.496 53.0664 112.038 53.1088L112.082 53.1178Z" fill="url(#paint2_linear_9269_85)"></path>
<path d="M221.236 70.894C219.968 70.894 218.712 71.1438 217.541 71.629C216.369 72.1143 215.305 72.8255 214.408 73.7221C213.511 74.6187 212.8 75.6832 212.315 76.8547C211.83 78.0262 211.58 79.2817 211.58 80.5498V112.393C211.614 114.571 211.213 116.733 210.401 118.753C209.588 120.774 208.38 122.611 206.848 124.158C205.315 125.705 203.489 126.93 201.476 127.762C199.464 128.593 197.305 129.014 195.128 129C192.95 128.986 190.797 128.537 188.796 127.679C186.794 126.821 184.984 125.573 183.472 124.006C181.96 122.439 180.776 120.586 179.989 118.555C179.203 116.524 178.831 114.357 178.894 112.18V51.9547C178.884 40.5299 174.341 29.5756 166.262 21.497C158.184 13.4185 147.23 8.87592 135.805 8.86652V28.1785C142.109 28.1855 148.152 30.6929 152.61 35.1502C157.067 39.6076 159.574 45.651 159.581 51.9547V112.393C159.624 121.844 163.419 130.891 170.131 137.543C176.844 144.196 185.924 147.909 195.374 147.867C204.825 147.824 213.871 144.029 220.524 137.317C227.176 130.604 230.89 121.524 230.847 112.074V80.5498C230.861 79.2815 230.623 78.0232 230.146 76.8482C229.668 75.6732 228.961 74.605 228.067 73.7061C227.172 72.8072 226.107 72.0956 224.934 71.6128C223.761 71.1299 222.504 70.8856 221.236 70.894Z" fill="url(#paint3_linear_9269_85)"></path>
<path d="M254.721 102.258H276.429C277.425 102.253 278.411 102.446 279.332 102.824C280.253 103.203 281.089 103.761 281.793 104.465C282.497 105.169 283.054 106.005 283.433 106.925C283.812 107.846 284.004 108.833 284 109.828V131.545C284.004 132.541 283.812 133.527 283.433 134.448C283.054 135.368 282.497 136.205 281.793 136.909C281.089 137.613 280.253 138.17 279.332 138.549C278.411 138.928 277.425 139.12 276.429 139.115H254.721C253.726 139.12 252.739 138.928 251.819 138.549C250.898 138.17 250.062 137.613 249.358 136.909C248.654 136.205 248.096 135.368 247.718 134.448C247.339 133.527 247.146 132.541 247.151 131.545V109.828C247.146 108.833 247.339 107.846 247.718 106.925C248.096 106.005 248.654 105.169 249.358 104.465C250.062 103.761 250.898 103.203 251.819 102.824C252.739 102.446 253.726 102.253 254.721 102.258ZM174.181 247.151H152.464C151.468 247.146 150.482 247.339 149.561 247.718C148.64 248.096 147.804 248.654 147.1 249.358C146.396 250.062 145.839 250.898 145.46 251.818C145.081 252.739 144.889 253.726 144.893 254.721V276.429C144.889 277.425 145.081 278.411 145.46 279.332C145.839 280.253 146.396 281.089 147.1 281.793C147.804 282.497 148.64 283.054 149.561 283.433C150.482 283.812 151.468 284.004 152.464 284H174.181C175.176 284.004 176.163 283.812 177.083 283.433C178.004 283.054 178.84 282.497 179.544 281.793C180.248 281.089 180.806 280.253 181.184 279.332C181.563 278.411 181.756 277.425 181.751 276.429V254.712C181.755 253.718 181.561 252.732 181.182 251.813C180.802 250.893 180.245 250.058 179.541 249.355C178.837 248.652 178.001 248.095 177.081 247.717C176.161 247.338 175.175 247.146 174.181 247.151ZM36.8581 174.181V152.463C36.8628 151.468 36.6702 150.482 36.2915 149.561C35.9127 148.64 35.3551 147.804 34.6512 147.1C33.9473 146.396 33.1109 145.839 32.1903 145.46C31.2697 145.081 30.2832 144.888 29.2877 144.893H7.57042C6.57495 144.888 5.58867 145.081 4.66807 145.46C3.74747 145.839 2.91083 146.396 2.20691 147.1C1.503 147.804 0.94574 148.64 0.566959 149.561C0.188177 150.482 -0.00461729 151.468 8.39514e-05 152.463V174.181C-0.00461729 175.176 0.188177 176.163 0.566959 177.083C0.94574 178.004 1.503 178.84 2.20691 179.544C2.91083 180.248 3.74747 180.806 4.66807 181.184C5.58867 181.563 6.57495 181.756 7.57042 181.751H29.2877C30.2832 181.756 31.2697 181.563 32.1903 181.184C33.1109 180.806 33.9473 180.248 34.6512 179.544C35.3551 178.84 35.9127 178.004 36.2915 177.083C36.6702 176.163 36.8628 175.176 36.8581 174.181ZM109.828 36.8581H131.545C132.541 36.8628 133.527 36.67 134.448 36.2912C135.369 35.9124 136.205 35.3551 136.909 34.6512C137.613 33.9473 138.17 33.1107 138.549 32.1901C138.928 31.2695 139.12 30.2829 139.116 29.2874V7.57042C139.119 6.57528 138.926 5.58922 138.547 4.66915C138.167 3.74908 137.61 2.9133 136.906 2.20962C136.203 1.50595 135.366 0.948326 134.446 0.569126C133.526 0.189925 132.541 -0.00343444 131.545 8.40659e-05H109.828C108.833 -0.00461717 107.846 0.187907 106.925 0.566688C106.005 0.94547 105.169 1.503 104.465 2.20691C103.761 2.91083 103.203 3.74719 102.825 4.6678C102.446 5.5884 102.253 6.57495 102.258 7.57042V29.2874C102.253 30.2829 102.446 31.2695 102.825 32.1901C103.203 33.1107 103.761 33.9473 104.465 34.6512C105.169 35.3551 106.005 35.9124 106.925 36.2912C107.846 36.67 108.833 36.8628 109.828 36.8581Z" fill="#075DA8"></path>
<circle cx="239" cy="220" r="17" fill="#00A1DF"></circle>
<circle cx="61" cy="239" r="17" fill="#00A1DF"></circle>
<circle cx="45" cy="62" r="17" fill="#00A1DF"></circle>
<circle cx="222" cy="45" r="17" fill="#00A1DF"></circle>
<defs>
<linearGradient id="paint0_linear_9269_85" x1="136.133" y1="183.391" x2="275.134" y2="183.391" gradientUnits="userSpaceOnUse">
<stop stop-color="#00A1DF"></stop>
<stop offset="1" stop-color="#075DA8"></stop>
</linearGradient>
<linearGradient id="paint1_linear_9269_85" x1="100.66" y1="275.125" x2="100.66" y2="136.125" gradientUnits="userSpaceOnUse">
<stop stop-color="#075DA8"></stop>
<stop offset="1" stop-color="#00A1DF"></stop>
</linearGradient>
<linearGradient id="paint2_linear_9269_85" x1="8.83044" y1="100.656" x2="147.858" y2="100.656" gradientUnits="userSpaceOnUse">
<stop stop-color="#075DA8"></stop>
<stop offset="1" stop-color="#00A1DF"></stop>
</linearGradient>
<linearGradient id="paint3_linear_9269_85" x1="183.326" y1="147.867" x2="183.326" y2="8.86652" gradientUnits="userSpaceOnUse">
<stop stop-color="#00A1DF"></stop>
<stop offset="1" stop-color="#075DA8"></stop>
</linearGradient>
</defs>
</svg>