<svg width="90" height="45" viewBox="0 0 90 45" fill="none" xmlns="http://www.w3.org/2000/svg">
<g clip-path="url(#clip0_1034_446)">
<path d="M43.1382 18.1138H38.7585C38.69 18.1107 38.6217 18.1218 38.5575 18.1465C38.4933 18.1712 38.4347 18.2089 38.3852 18.2573C38.3357 18.3058 38.2963 18.364 38.2693 18.4284C38.2424 18.4929 38.2285 18.5622 38.2285 18.6323C38.2285 18.7024 38.2424 18.7717 38.2693 18.8361C38.2963 18.9006 38.3357 18.9588 38.3852 19.0072C38.4347 19.0557 38.4933 19.0934 38.5575 19.1181C38.6217 19.1427 38.69 19.1539 38.7585 19.1508H40.4304V26.4188C40.4304 26.5575 40.4843 26.6905 40.5802 26.7886C40.6762 26.8867 40.8063 26.9418 40.942 26.9418C41.0777 26.9418 41.2078 26.8867 41.3038 26.7886C41.3997 26.6905 41.4536 26.5575 41.4536 26.4188V19.1508H43.1382C43.2067 19.1539 43.2751 19.1427 43.3392 19.1181C43.4034 19.0934 43.462 19.0557 43.5115 19.0072C43.5611 18.9588 43.6005 18.9006 43.6274 18.8361C43.6543 18.7717 43.6682 18.7024 43.6682 18.6323C43.6682 18.5622 43.6543 18.4929 43.6274 18.4284C43.6005 18.364 43.5611 18.3058 43.5115 18.2573C43.462 18.2089 43.4034 18.1712 43.3392 18.1465C43.2751 18.1218 43.2067 18.1107 43.1382 18.1138Z" fill="#02122B"></path>
<path d="M46.7148 26.4184V18.5704C46.7206 18.4358 46.777 18.3087 46.8722 18.2155C46.9674 18.1223 47.0942 18.0703 47.226 18.0703C47.3578 18.0703 47.4846 18.1223 47.5798 18.2155C47.675 18.3087 47.7314 18.4358 47.7371 18.5704V26.4184C47.7314 26.5531 47.675 26.6802 47.5798 26.7734C47.4846 26.8666 47.3578 26.9186 47.226 26.9186C47.0942 26.9186 46.9674 26.8666 46.8722 26.7734C46.777 26.6802 46.7206 26.5531 46.7148 26.4184Z" fill="#02122B"></path>
<path d="M60.631 26.3338L59.0404 18.4688C59.0125 18.3609 58.9523 18.2646 58.8683 18.1934C58.7842 18.1222 58.6805 18.0796 58.5715 18.0717C58.4626 18.0637 58.354 18.0908 58.2609 18.1491C58.1678 18.2074 58.0949 18.294 58.0523 18.3968L55.8718 24.8468L53.6912 18.3968C53.6487 18.294 53.5757 18.2074 53.4826 18.1491C53.3895 18.0908 53.2809 18.0637 53.172 18.0717C53.0631 18.0796 52.9594 18.1222 52.8753 18.1934C52.7912 18.2646 52.7311 18.3609 52.7032 18.4688L51.1125 26.3338C51.1125 26.3578 51.0998 26.3458 51.0998 26.4188C51.0978 26.4891 51.1098 26.559 51.1351 26.6244C51.1605 26.6897 51.1985 26.7491 51.2471 26.7989C51.2956 26.8487 51.3535 26.8878 51.4174 26.914C51.4812 26.9401 51.5496 26.9526 51.6183 26.9508C51.7357 26.9516 51.8499 26.9113 51.9417 26.8365C52.0336 26.7617 52.0976 26.657 52.1231 26.5398L53.3283 20.5338L55.3895 26.5988C55.4234 26.702 55.4884 26.7916 55.5753 26.8547C55.6621 26.9177 55.7663 26.9511 55.8728 26.9498C55.9785 26.9494 56.0815 26.9154 56.1676 26.8525C56.2536 26.7896 56.3184 26.701 56.3531 26.5988L58.4123 20.5338L59.6175 26.5398C59.6432 26.6571 59.7074 26.7618 59.7994 26.8366C59.8915 26.9114 60.0058 26.9517 60.1233 26.9508C60.1921 26.9528 60.2606 26.9403 60.3245 26.9143C60.3885 26.8882 60.4465 26.8491 60.4952 26.7993C60.5438 26.7494 60.582 26.69 60.6074 26.6246C60.6327 26.5592 60.6448 26.4892 60.6428 26.4188C60.6428 26.3458 60.631 26.3578 60.631 26.3338Z" fill="#02122B"></path>
<path d="M64.0898 26.4179V18.5699C64.0898 18.4312 64.1437 18.2981 64.2397 18.2001C64.3356 18.102 64.4658 18.0469 64.6015 18.0469C64.7372 18.0469 64.8673 18.102 64.9633 18.2001C65.0592 18.2981 65.1131 18.4312 65.1131 18.5699V26.4179C65.1131 26.5566 65.0592 26.6896 64.9633 26.7877C64.8673 26.8858 64.7372 26.9409 64.6015 26.9409C64.4658 26.9409 64.3356 26.8858 64.2397 26.7877C64.1437 26.6896 64.0898 26.5566 64.0898 26.4179Z" fill="#02122B"></path>
<path d="M68.5336 25.8591C68.5308 25.7893 68.5423 25.7197 68.5673 25.6548C68.5924 25.5899 68.6304 25.531 68.6791 25.482C68.7278 25.433 68.7859 25.395 68.8498 25.3704C68.9137 25.3458 68.982 25.3351 69.0502 25.3391C69.5099 25.3391 69.7124 25.9071 70.904 25.9071C71.7961 25.9071 72.9025 25.5071 72.9025 24.3831C72.9025 22.0951 68.6784 22.9831 68.6784 20.1931C68.6784 18.8381 69.8934 18.0751 71.2297 18.0751C71.9505 18.0588 72.658 18.275 73.2518 18.6931C73.3169 18.7394 73.3704 18.8008 73.4079 18.8722C73.4455 18.9436 73.4661 19.023 73.468 19.1041C73.4664 19.2005 73.4392 19.2947 73.3892 19.3764C73.3391 19.4582 73.2682 19.5244 73.1841 19.5681C73.1 19.6117 73.0058 19.631 72.9117 19.624C72.8176 19.6169 72.7272 19.5838 72.6502 19.5281C72.2587 19.2503 71.7912 19.1065 71.3148 19.1171C70.496 19.1171 69.7124 19.4171 69.7124 20.2071C69.7124 22.0711 73.9248 21.1751 73.9248 24.3841C73.9248 26.1141 72.386 26.9381 70.904 26.9381C70.3268 26.9361 68.5336 26.6101 68.5336 25.8591Z" fill="#02122B"></path>
<path d="M78.3699 23.0428H81.0288C81.1618 23.0428 81.2893 22.9888 81.3834 22.8927C81.4774 22.7966 81.5302 22.6662 81.5302 22.5303C81.5302 22.3944 81.4774 22.2641 81.3834 22.1679C81.2893 22.0718 81.1618 22.0178 81.0288 22.0178H78.3699V19.1178H81.0288C81.1617 19.1178 81.2891 19.0639 81.383 18.9679C81.4769 18.8718 81.5297 18.7416 81.5297 18.6058C81.5297 18.47 81.4769 18.3398 81.383 18.2438C81.2891 18.1478 81.1617 18.0938 81.0288 18.0938H77.8642C77.7968 18.0926 77.7299 18.1051 77.6674 18.1306C77.6048 18.1561 77.5479 18.1941 77.4998 18.2423C77.4517 18.2905 77.4135 18.348 77.3874 18.4114C77.3613 18.4749 77.3478 18.543 77.3477 18.6118V26.4218C77.35 26.5601 77.4054 26.6919 77.5021 26.7887C77.5988 26.8854 77.7289 26.9394 77.8642 26.9388H81.0288C81.0965 26.9419 81.1642 26.9309 81.2276 26.9065C81.291 26.8821 81.349 26.8449 81.3979 26.797C81.4469 26.7491 81.4859 26.6916 81.5125 26.6279C81.5391 26.5642 81.5528 26.4956 81.5528 26.4263C81.5528 26.3571 81.5391 26.2885 81.5125 26.2248C81.4859 26.1611 81.4469 26.1036 81.3979 26.0557C81.349 26.0078 81.291 25.9705 81.2276 25.9461C81.1642 25.9218 81.0965 25.9108 81.0288 25.9138H78.3699V23.0428Z" fill="#02122B"></path>
<path d="M22.4528 26.9809C21.5885 26.963 20.7487 26.6846 20.0387 26.1807C19.3286 25.6768 18.7799 24.9698 18.4613 24.1484C18.1427 23.327 18.0685 22.4277 18.248 21.5633C18.4274 20.699 18.8525 19.908 19.47 19.2896C20.0875 18.6713 20.8698 18.253 21.7189 18.0874C22.568 17.9217 23.446 18.016 24.2428 18.3584C25.0397 18.7009 25.7199 19.2762 26.1982 20.0122C26.6765 20.7483 26.9315 21.6123 26.9313 22.4959C26.9176 23.6972 26.4384 24.8439 25.5989 25.6847C24.7594 26.5254 23.628 26.9916 22.4528 26.9809ZM22.4528 19.0339C21.7861 19.0479 21.1382 19.2627 20.5905 19.6516C20.0428 20.0404 19.6195 20.5858 19.3738 21.2195C19.1281 21.8532 19.0708 22.547 19.2093 23.2138C19.3477 23.8806 19.6756 24.4908 20.1519 24.9679C20.6282 25.445 21.2317 25.7677 21.8867 25.8957C22.5417 26.0236 23.219 25.951 23.8338 25.687C24.4486 25.423 24.9735 24.9794 25.3427 24.4117C25.7118 23.844 25.9088 23.1776 25.909 22.4959C25.8994 21.5683 25.53 20.6826 24.882 20.0332C24.2339 19.3839 23.3602 19.0251 22.4528 19.0339Z" fill="#02122B"></path>
<path d="M87.7433 23.033C88.3771 22.9923 88.9699 22.6985 89.3938 22.2151C89.8177 21.7317 90.0388 21.0973 90.0092 20.4488C89.9797 19.8003 89.702 19.1897 89.236 18.7486C88.77 18.3075 88.1531 18.0713 87.5183 18.091H85.3417C85.208 18.0928 85.0802 18.148 84.9857 18.2448C84.8912 18.3416 84.8375 18.4723 84.8359 18.609V26.419C84.8359 26.5577 84.8899 26.6907 84.9858 26.7888C85.0818 26.8869 85.2119 26.942 85.3476 26.942C85.4833 26.942 85.6134 26.8869 85.7094 26.7888C85.8053 26.6907 85.8592 26.5577 85.8592 26.419V23.044H86.499L89.0718 26.72C89.1174 26.7875 89.1786 26.8426 89.2499 26.8802C89.3212 26.9179 89.4004 26.937 89.4807 26.936C89.6163 26.9368 89.7467 26.883 89.8437 26.7862C89.9408 26.6895 89.9966 26.5575 89.9992 26.419C89.9976 26.3141 89.9634 26.2125 89.9014 26.129L87.7433 23.033ZM85.8592 19.127H87.5223C87.7125 19.1197 87.9021 19.1518 88.0799 19.2212C88.2577 19.2906 88.42 19.396 88.557 19.531C88.6941 19.6659 88.8031 19.8278 88.8776 20.0068C88.9521 20.1859 88.9904 20.3784 88.9904 20.573C88.9904 20.7675 88.9521 20.9601 88.8776 21.1391C88.8031 21.3182 88.6941 21.48 88.557 21.615C88.42 21.75 88.2577 21.8553 88.0799 21.9247C87.9021 21.9942 87.7125 22.0262 87.5223 22.019H85.8592V19.127Z" fill="#02122B"></path>
<path d="M32.7878 18.0899H30.6581C30.5225 18.089 30.392 18.143 30.2951 18.24C30.1982 18.337 30.1427 18.4692 30.1406 18.6079V26.4179C30.1406 26.5582 30.1951 26.6927 30.2922 26.7919C30.3892 26.8911 30.5209 26.9468 30.6581 26.9468C30.7954 26.9468 30.927 26.8911 31.024 26.7919C31.1211 26.6927 31.1756 26.5582 31.1756 26.4179V23.6929H32.7878C33.5143 23.6929 34.211 23.3979 34.7247 22.8728C35.2383 22.3476 35.5269 21.6355 35.5269 20.8929C35.5269 20.1503 35.2383 19.4381 34.7247 18.913C34.211 18.3879 33.5143 18.0929 32.7878 18.0929V18.0899ZM32.7878 22.6688H31.1756V19.1139H32.7878C33.0196 19.1082 33.2502 19.1501 33.466 19.2369C33.6818 19.3237 33.8784 19.4537 34.0443 19.6193C34.2102 19.7849 34.342 19.9828 34.432 20.2012C34.522 20.4197 34.5684 20.6543 34.5684 20.8914C34.5684 21.1284 34.522 21.363 34.432 21.5815C34.342 21.7999 34.2102 21.9978 34.0443 22.1634C33.8784 22.329 33.6818 22.4591 33.466 22.5459C33.2502 22.6327 33.0196 22.6745 32.7878 22.6688Z" fill="#02122B"></path>
<path d="M12.0826 12.5952C12.4506 12.9506 12.9391 13.1463 13.4453 13.1412C13.6496 13.139 13.8525 13.1053 14.0469 13.0412L14.9636 14.1412C15.1579 14.3643 15.3968 14.5422 15.6641 14.663C15.9314 14.7837 16.2209 14.8445 16.5131 14.8412C16.8497 14.8439 17.1812 14.7578 17.4757 14.5912L17.5021 14.5752L18.0539 15.5312C18.0997 15.6104 18.1742 15.6679 18.2613 15.6912C18.3492 15.7145 18.4425 15.7019 18.5215 15.6562C19.3204 15.1959 20.1912 14.8802 21.0953 14.7232C21.1843 14.7078 21.2638 14.6572 21.3164 14.5822C21.3422 14.5456 21.3605 14.5041 21.3702 14.4601C21.38 14.4161 21.381 14.3706 21.3731 14.3262L20.0701 6.94621C20.4455 6.8057 20.7662 6.5446 20.9842 6.20206C21.2022 5.85951 21.3057 5.45396 21.2792 5.04621L20.972 1.56421C20.8879 0.611207 20.2354 -0.0927947 19.4988 0.00520531C19.3513 0.0269243 19.2095 0.0788614 19.0821 0.157904C18.9547 0.236946 18.8442 0.34147 18.7573 0.465208C18.6188 0.671618 18.523 0.904678 18.4756 1.15019C18.4281 1.3957 18.4301 1.64851 18.4814 1.89321L19.2728 6.36821C19.0433 6.34046 18.8265 6.24545 18.6486 6.09464C18.4707 5.94383 18.3392 5.74364 18.2701 5.51821L18.1723 5.16321C18.0834 4.8174 17.8843 4.51171 17.6065 4.29441C17.3288 4.07711 16.9881 3.96058 16.6383 3.96321C16.4608 3.9638 16.2845 3.99317 16.116 4.05021L15.6092 2.66021C15.5034 2.35851 15.3091 2.09756 15.0527 1.91302C14.7964 1.72848 14.4906 1.62936 14.177 1.62921C13.9182 1.63007 13.6633 1.69419 13.4336 1.81621L10.7111 3.23721C10.5136 3.33526 10.3393 3.47601 10.2003 3.64971C10.0613 3.82341 9.96085 4.02592 9.90596 4.24321C9.8544 4.46022 9.85028 4.68618 9.89391 4.905C9.93753 5.12383 10.0278 5.33013 10.1583 5.50921L12.1286 8.32221C12.3106 8.57023 12.5471 8.7711 12.8189 8.90866C13.0908 9.04622 13.3905 9.11663 13.6938 9.11421C14.0005 9.11597 14.3029 9.04041 14.5742 8.89421L14.6221 8.86921C15.0191 8.64791 15.3192 8.28107 15.462 7.84259C15.6049 7.40411 15.5799 6.92659 15.392 6.50621L15.2365 6.17221C15.1797 6.05663 15.1479 5.9299 15.1434 5.80065C15.1388 5.6714 15.1616 5.54266 15.2101 5.42321C15.2578 5.31164 15.3266 5.21082 15.4125 5.12655C15.4985 5.04229 15.5999 4.97624 15.711 4.93221L18.3131 12.0742C18.4037 12.3618 18.3981 12.672 18.2972 12.9559C18.1962 13.2398 18.0056 13.4813 17.7555 13.6422L16.9729 12.2892C16.8388 12.0497 16.6453 11.8504 16.4119 11.7116C16.1785 11.5727 15.9135 11.4991 15.6435 11.4982C15.2959 11.4999 14.9585 11.6179 14.6828 11.8342L14.2269 12.1842L11.2579 8.60921C11.0945 8.39149 10.8882 8.21138 10.6522 8.08061C10.4162 7.94984 10.156 7.87134 9.88834 7.85021C9.65936 7.8447 9.43667 7.92712 9.26421 8.08121C9.17247 8.16752 9.09948 8.27255 9.04994 8.38951C9.0004 8.50647 8.97541 8.63276 8.9766 8.76021C8.98969 9.0185 9.0527 9.27158 9.16201 9.50484C9.27132 9.7381 9.42475 9.94691 9.61345 10.1192L12.0826 12.5952ZM19.3061 0.871207C19.3377 0.822355 19.3789 0.780709 19.4271 0.748877C19.4752 0.717045 19.5293 0.695709 19.5858 0.686205C19.6011 0.685179 19.6165 0.685179 19.6318 0.686205C19.9077 0.686205 20.2364 1.04621 20.2882 1.62921L20.5954 5.11121C20.6084 5.34592 20.5537 5.57937 20.438 5.78257C20.3224 5.98577 20.1509 6.14977 19.9449 6.25421L19.1534 1.77921C19.1186 1.62509 19.1141 1.4654 19.1403 1.3095C19.1665 1.15359 19.2229 1.00459 19.3061 0.871207ZM14.5742 5.17121C14.4894 5.37814 14.449 5.60128 14.4557 5.82555C14.4625 6.04982 14.5162 6.27 14.6133 6.47121L14.7689 6.80521C14.8825 7.06671 14.8969 7.36207 14.8092 7.6338C14.7215 7.90553 14.538 8.13417 14.2944 8.27521L14.2465 8.30021C14.0752 8.39232 13.8844 8.43973 13.6908 8.43821C13.4971 8.44062 13.3056 8.39666 13.1314 8.30984C12.9573 8.22302 12.8055 8.09575 12.6881 7.93821L10.7179 5.12521C10.6438 5.02519 10.5922 4.90973 10.5667 4.78703C10.5412 4.66433 10.5424 4.53738 10.5702 4.41521C10.6022 4.29351 10.6596 4.18034 10.7384 4.08349C10.8173 3.98664 10.9158 3.90842 11.027 3.85421L13.7486 2.43321C13.8806 2.36263 14.0271 2.32526 14.1761 2.32421C14.3505 2.32466 14.5205 2.38094 14.662 2.48514C14.8036 2.58933 14.9097 2.73623 14.9655 2.90521L15.4713 4.29321C15.2719 4.36913 15.0897 4.48554 14.9355 4.6354C14.7813 4.78527 14.6584 4.96549 14.5742 5.16521V5.17121ZM18.9519 11.8482L16.3527 4.69921C16.4477 4.66904 16.5467 4.65386 16.6462 4.65421C16.8458 4.6536 17.04 4.72087 17.1981 4.84542C17.3563 4.96996 17.4694 5.14473 17.5198 5.34221L17.6176 5.69721C17.7327 6.08867 17.9669 6.4324 18.2862 6.67842C18.6055 6.92445 18.9933 7.05995 19.3931 7.06521L20.6414 14.1212C19.8899 14.2828 19.1628 14.5461 18.4794 14.9042L18.096 14.2392C18.4828 13.998 18.7781 13.6297 18.9335 13.1947C19.089 12.7596 19.0955 12.2835 18.9519 11.8442V11.8482ZM15.0976 12.3852C15.2533 12.2616 15.4443 12.1934 15.6415 12.1912C15.7923 12.1923 15.94 12.2345 16.0695 12.3134C16.199 12.3923 16.3055 12.5051 16.3781 12.6402L17.1607 13.9932L17.1333 14.0092C16.9437 14.1155 16.7304 14.17 16.5141 14.1672C16.3221 14.1695 16.1319 14.1306 15.9556 14.0529C15.7793 13.9752 15.621 13.8605 15.4908 13.7162L14.6632 12.7162L15.0976 12.3852ZM9.72204 8.59421C9.74433 8.57526 9.77007 8.561 9.79777 8.55225C9.82547 8.54349 9.85459 8.54042 9.88345 8.54321C10.0508 8.56699 10.2118 8.6246 10.357 8.71268C10.5023 8.80076 10.629 8.91754 10.7296 9.05621L13.5539 12.4562C13.375 12.473 13.1947 12.4514 13.0245 12.3926C12.8544 12.3339 12.6981 12.2394 12.5658 12.1152L10.0918 9.63721C9.8454 9.41711 9.68954 9.1099 9.65552 8.77721C9.6533 8.74288 9.65806 8.70844 9.66951 8.67608C9.68096 8.64372 9.69885 8.61414 9.72204 8.58921V8.59421Z" fill="#00A1DF"></path>
<path d="M23.7041 13.3446L25.2693 13.7676L24.9534 14.6396C24.9382 14.6822 24.9315 14.7273 24.9336 14.7725C24.9357 14.8177 24.9466 14.8621 24.9656 14.9029C24.9846 14.9438 25.0114 14.9804 25.0444 15.0105C25.0774 15.0407 25.116 15.0638 25.1578 15.0786C26.0187 15.3924 26.8197 15.8566 27.5252 16.4506C27.5951 16.5092 27.6846 16.5375 27.7747 16.5297C27.8647 16.5218 27.9482 16.4784 28.0075 16.4086L30.1597 13.8316C30.3041 13.6696 30.4092 13.4751 30.4666 13.2639C30.5241 13.0527 30.5322 12.8306 30.4903 12.6156C30.4366 12.4025 30.3353 12.205 30.1942 12.0388C30.0531 11.8725 29.8762 11.7421 29.6774 11.6576L29.2518 11.4576L33.2285 4.48763C33.3423 4.29864 33.4128 4.08574 33.4346 3.86493C33.4565 3.64411 33.4291 3.42111 33.3547 3.21263C33.2753 3.00414 33.1516 2.81624 32.9926 2.66251C32.8336 2.50878 32.6432 2.39304 32.4351 2.32363L27.7394 0.615633C27.5622 0.550089 27.3752 0.516259 27.1867 0.515631C26.8406 0.514615 26.5055 0.640149 26.242 0.869563C25.9784 1.09898 25.8038 1.41715 25.7497 1.76663L25.4562 3.43763L23.8675 3.15663C23.6306 3.1105 23.3863 3.12272 23.155 3.19228C22.9236 3.26184 22.7118 3.38674 22.5371 3.55663C22.3981 3.69871 22.2885 3.86787 22.2147 4.05408C22.1409 4.24029 22.1045 4.43976 22.1076 4.64063V11.2726C22.1303 11.7447 22.2962 12.1978 22.5823 12.5691C22.8684 12.9404 23.2605 13.2115 23.7041 13.3446ZM25.284 8.41663L26.0167 4.23563L27.6054 4.51663C27.7249 4.53256 27.8394 4.57524 27.9409 4.64162C28.0423 4.70799 28.1282 4.79643 28.1924 4.90063C28.2508 5.00646 28.2848 5.1245 28.2919 5.24578C28.2991 5.36707 28.2791 5.48842 28.2335 5.60063L26.5636 10.2006L26.1057 9.98663C25.8278 9.84266 25.5999 9.61481 25.4529 9.33397C25.3059 9.05313 25.247 8.73288 25.284 8.41663ZM26.1644 13.3016L26.947 11.1416L28.2902 11.7676L27.8011 12.6236C27.6582 12.8454 27.4635 13.0274 27.2347 13.1531C27.0058 13.2788 26.75 13.3442 26.4902 13.3436C26.3826 13.344 26.2754 13.3302 26.1713 13.3026L26.1644 13.3016ZM29.8251 12.7656C29.8444 12.8777 29.8375 12.9929 29.8048 13.1017C29.7722 13.2105 29.7147 13.3099 29.6373 13.3916L27.6964 15.7116C27.0871 15.2383 26.4186 14.8505 25.7086 14.5586L25.9297 13.9476L25.9933 13.9646C26.1559 14.0077 26.3232 14.0292 26.4912 14.0286C26.8708 14.0298 27.2445 13.9327 27.5775 13.7465C27.9105 13.5603 28.192 13.291 28.3959 12.9636L28.9133 12.0566L29.3917 12.2786C29.4967 12.3192 29.5909 12.3844 29.6667 12.469C29.7424 12.5536 29.7977 12.6552 29.828 12.7656H29.8251ZM26.4286 1.88763C26.4516 1.69782 26.542 1.52327 26.6827 1.39716C26.8234 1.27105 27.0045 1.20218 27.1916 1.20363C27.3004 1.20446 27.4083 1.22442 27.5105 1.26263L32.2062 2.97063C32.3207 3.00735 32.4259 3.06951 32.5142 3.15267C32.6025 3.23583 32.6717 3.33792 32.7168 3.45163C32.7563 3.56679 32.7697 3.68957 32.7562 3.8108C32.7426 3.93202 32.7024 4.04854 32.6386 4.15163L28.6336 11.1716L27.1838 10.4966L28.8742 5.83563C28.9545 5.62955 28.9879 5.40753 28.972 5.18632C28.956 4.96511 28.8912 4.75048 28.7823 4.55863C28.6683 4.36698 28.5143 4.20342 28.3313 4.07965C28.1484 3.95588 27.9409 3.87494 27.7238 3.84263L26.1351 3.56063L26.4286 1.88763ZM23.0262 4.03863C23.1758 3.89327 23.3755 3.8142 23.5818 3.81863C23.6395 3.81863 23.6971 3.82365 23.754 3.83363L25.3427 4.11463L24.61 8.29763C24.5456 8.76353 24.6276 9.23829 24.8442 9.65345C25.0609 10.0686 25.4008 10.4027 25.8152 10.6076L26.3278 10.8476L25.5041 13.1176L23.8822 12.6796C23.5836 12.5841 23.3206 12.3978 23.1283 12.1455C22.9361 11.8932 22.8236 11.5869 22.8061 11.2676V4.63563C22.8024 4.52635 22.82 4.41742 22.8578 4.31513C22.8956 4.21283 22.9528 4.1192 23.0262 4.03963V4.03863Z" fill="#00A1DF"></path>
<path d="M27.1863 31.3515L27.9689 32.7035C28.1032 32.9432 28.2969 33.1424 28.5305 33.2813C28.764 33.4201 29.0292 33.4937 29.2994 33.4945C29.6468 33.4931 29.9842 33.3754 30.26 33.1595L30.7159 32.8105L33.6839 36.3855C33.8472 36.6033 34.0536 36.7834 34.2896 36.9142C34.5256 37.045 34.7859 37.1234 35.0535 37.1445C35.2821 37.1498 35.5044 37.0674 35.6766 36.9135C35.7685 36.8272 35.8417 36.7223 35.8914 36.6053C35.9411 36.4883 35.9662 36.362 35.9652 36.2345C35.9523 35.9763 35.8894 35.7233 35.7803 35.49C35.6711 35.2567 35.5179 35.0479 35.3294 34.8755L32.8563 32.4015C32.4883 32.0461 31.9998 31.8504 31.4936 31.8555C31.2889 31.8576 31.0858 31.8913 30.891 31.9555L29.9753 30.8555C29.7813 30.6323 29.5426 30.4543 29.2754 30.3336C29.0083 30.2128 28.7189 30.1521 28.4268 30.1555C28.0902 30.1528 27.7586 30.2389 27.4641 30.4055L27.4358 30.4215L26.8831 29.4645C26.8366 29.3853 26.7616 29.3278 26.6742 29.3045C26.5868 29.2811 26.4939 29.2937 26.4155 29.3395C25.6163 29.7992 24.7456 30.1144 23.8416 30.2715C23.7527 30.287 23.6733 30.3376 23.6206 30.4125C23.5948 30.4491 23.5765 30.4906 23.5667 30.5346C23.557 30.5786 23.556 30.6241 23.5638 30.6685L24.8708 38.0575C24.4958 38.1986 24.1756 38.4599 23.9578 38.8023C23.7401 39.1447 23.6365 39.55 23.6626 39.9575L23.9698 43.4395C23.9646 43.8232 24.0983 44.1952 24.3451 44.4843C24.5919 44.7733 24.9345 44.959 25.3071 45.0055C25.3522 45.0055 25.3973 45.0024 25.4421 44.9965C25.5895 44.9752 25.7312 44.9236 25.8586 44.8449C25.986 44.7662 26.0966 44.662 26.1836 44.5385C26.3221 44.332 26.4179 44.0987 26.4652 43.853C26.5124 43.6073 26.5101 43.3543 26.4585 43.1095L25.6671 38.6345C25.8968 38.6622 26.1137 38.7573 26.2916 38.9084C26.4696 39.0594 26.6009 39.2598 26.6698 39.4855L26.7676 39.8405C26.8572 40.1851 27.0563 40.4896 27.3336 40.7059C27.6109 40.9222 27.9507 41.0382 28.2996 41.0355C28.4778 41.0348 28.6548 41.0051 28.8239 40.9475L29.3297 42.3385C29.4359 42.6401 29.6305 42.901 29.8869 43.0854C30.1434 43.2699 30.4492 43.3691 30.7628 43.3695C31.0217 43.3687 31.2766 43.3045 31.5063 43.1825L34.2298 41.7615C34.4276 41.6632 34.6021 41.5221 34.7412 41.3481C34.8804 41.1741 34.981 40.9712 35.0359 40.7535C35.0871 40.5367 35.0909 40.3111 35.0471 40.0926C35.0033 39.8742 34.913 39.6682 34.7825 39.4895L32.8123 36.6755C32.6299 36.4279 32.3934 36.2274 32.1216 36.09C31.8498 35.9527 31.5503 35.8823 31.2471 35.8845C30.9369 35.8835 30.6314 35.9611 30.3578 36.1105L30.3226 36.1305C29.925 36.3513 29.6242 36.7182 29.4811 37.1571C29.338 37.5959 29.3632 38.074 29.5518 38.4945L29.7073 38.8275C29.7638 38.943 29.7953 39.0696 29.7997 39.1987C29.8041 39.3277 29.7812 39.4563 29.7327 39.5755C29.6849 39.6872 29.616 39.7881 29.5299 39.8723C29.4437 39.9566 29.3421 40.0226 29.2309 40.0665L26.6287 32.9265C26.5366 32.638 26.5414 32.3263 26.6424 32.041C26.7434 31.7556 26.9349 31.5129 27.1863 31.3515ZM32.3711 32.8865L34.8441 35.3595C35.0901 35.5795 35.2456 35.8863 35.2795 36.2185C35.2816 36.2528 35.2768 36.2872 35.2653 36.3196C35.2539 36.3519 35.236 36.3815 35.2129 36.4065C35.0662 36.5405 34.5996 36.4175 34.2063 35.9455L31.3821 32.5455C31.5614 32.5283 31.7423 32.5498 31.913 32.6085C32.0837 32.6673 32.2404 32.762 32.3731 32.8865H32.3711ZM27.8036 30.9935C27.9935 30.8869 28.2071 30.8321 28.4238 30.8345C28.6165 30.8292 28.808 30.8662 28.9854 30.9432C29.1628 31.0201 29.3219 31.1352 29.452 31.2805L30.2796 32.2805L29.8452 32.6135C29.6895 32.7371 29.4985 32.8053 29.3013 32.8075C29.1507 32.8053 29.0032 32.7626 28.8738 32.6838C28.7443 32.605 28.6374 32.4929 28.5637 32.3585L27.7811 31.0065L27.8036 30.9935ZM25.6299 44.1275C25.5983 44.1762 25.5573 44.2176 25.5093 44.2493C25.4613 44.2809 25.4075 44.3021 25.3511 44.3115C25.3358 44.3125 25.3204 44.3125 25.3051 44.3115C25.0302 44.3115 24.7006 43.9515 24.6497 43.3705L24.3425 39.8885C24.33 39.6536 24.3847 39.4201 24.5001 39.2165C24.6155 39.0129 24.7865 38.8482 24.9921 38.7425L25.7835 43.2205C25.8521 43.5315 25.7976 43.8575 25.6319 44.1275H25.6299ZM30.3627 39.8275C30.4477 39.6206 30.4883 39.3975 30.4817 39.1733C30.4751 38.949 30.4216 38.7288 30.3246 38.5275L30.169 38.1945C30.0551 37.9304 30.0421 37.6322 30.1326 37.3588C30.2232 37.0854 30.4107 36.8566 30.6582 36.7175L30.6934 36.6975C30.8639 36.6062 31.0537 36.5592 31.2461 36.5605C31.4401 36.5579 31.632 36.6018 31.8065 36.6886C31.9809 36.7755 32.1331 36.9028 32.2508 37.0605L34.221 39.8745C34.2951 39.9741 34.3468 40.0892 34.3725 40.2116C34.3982 40.3339 34.3972 40.4606 34.3697 40.5825C34.3377 40.7046 34.2803 40.8182 34.2012 40.9154C34.1222 41.0126 34.0235 41.0911 33.9119 41.1455L31.1884 42.5665C31.0564 42.6372 30.9099 42.6745 30.7609 42.6755C30.5863 42.6751 30.4162 42.6189 30.2744 42.5147C30.1327 42.4105 30.0264 42.2636 29.9704 42.0945L29.4657 40.7045C29.6658 40.6284 29.8487 40.5115 30.0032 40.3609C30.1578 40.2103 30.2807 40.0292 30.3647 39.8285L30.3627 39.8275ZM25.984 33.1525L28.5872 40.2965C28.4922 40.327 28.3933 40.3425 28.2937 40.3425C28.0944 40.3428 27.9006 40.2754 27.7428 40.1509C27.585 40.0264 27.4722 39.8517 27.4221 39.6545L27.3243 39.3005C27.2091 38.9068 26.9735 38.5613 26.6519 38.3147C26.3304 38.0681 25.9399 37.9334 25.5379 37.9305L24.2907 30.8735C25.042 30.712 25.7691 30.449 26.4526 30.0915L26.8371 30.7575C26.4511 30.9997 26.1567 31.3684 26.0022 31.8036C25.8476 32.2387 25.8419 32.7146 25.986 33.1535L25.984 33.1525Z" fill="#00A1DF"></path>
<path d="M21.227 31.6502L19.6618 31.2272L19.9778 30.3532C19.9929 30.3107 19.9996 30.2655 19.9975 30.2203C19.9954 30.1751 19.9845 30.1308 19.9655 30.0899C19.9465 30.049 19.9197 30.0125 19.8867 29.9823C19.8537 29.9521 19.8151 29.929 19.7733 29.9142C18.9121 29.6006 18.111 29.1359 17.4059 28.5412C17.3359 28.4828 17.2465 28.4545 17.1564 28.4622C17.0663 28.4697 16.9827 28.5132 16.9236 28.5832L14.7656 31.1632C14.6211 31.3248 14.5158 31.5189 14.4584 31.7298C14.4009 31.9407 14.3929 32.1625 14.4349 32.3772C14.4886 32.5907 14.59 32.7886 14.7313 32.9552C14.8725 33.1218 15.0497 33.2526 15.2488 33.3372L15.6734 33.5372L11.6977 40.5072C11.584 40.6962 11.5135 40.9091 11.4917 41.1299C11.4698 41.3507 11.4971 41.5737 11.5716 41.7822C11.6511 41.9905 11.7748 42.1782 11.9338 42.3317C12.0928 42.4853 12.2831 42.6009 12.4911 42.6702L17.1868 44.3782C17.3631 44.4434 17.5491 44.4772 17.7366 44.4782C18.0831 44.4792 18.4185 44.3536 18.6824 44.1241C18.9463 43.8945 19.1212 43.576 19.1756 43.2262L19.4691 41.5552L21.0587 41.8372C21.1556 41.8545 21.2538 41.8632 21.3522 41.8632C21.5465 41.8673 21.7396 41.8311 21.9199 41.7568C22.1001 41.6825 22.2637 41.5716 22.4009 41.4309C22.538 41.2901 22.6458 41.1224 22.7178 40.9379C22.7898 40.7533 22.8244 40.5558 22.8196 40.3572V33.7262C22.8028 33.2525 22.6396 32.7965 22.3534 32.4235C22.0673 32.0506 21.673 31.7798 21.227 31.6502ZM19.6471 36.5782L18.9134 40.7582L17.3257 40.4782C17.2061 40.4622 17.0915 40.4194 16.99 40.3528C16.8886 40.2863 16.8027 40.1976 16.7387 40.0932C16.6803 39.9874 16.6463 39.8693 16.6392 39.748C16.632 39.6267 16.652 39.5054 16.6976 39.3932L18.3666 34.7932L18.8244 35.0062C19.1034 35.1498 19.3324 35.3776 19.4803 35.6589C19.6282 35.9401 19.6878 36.2611 19.651 36.5782H19.6471ZM18.7667 31.6932L17.9841 33.8542L16.6399 33.2272L17.1291 32.3702C17.2718 32.1482 17.4664 31.9661 17.6953 31.8402C17.9241 31.7143 18.18 31.6487 18.4399 31.6492C18.5475 31.6487 18.6547 31.6625 18.7588 31.6902L18.7667 31.6932ZM15.105 32.2282C15.0856 32.1163 15.0924 32.0014 15.1249 31.8927C15.1573 31.7841 15.2146 31.6848 15.2919 31.6032L17.2347 29.2812C17.8438 29.7548 18.5124 30.1426 19.2225 30.4342L19.0005 31.0462L18.9369 31.0292C18.7743 30.9857 18.607 30.9638 18.4389 30.9642C18.0593 30.9632 17.6855 31.0604 17.3525 31.2468C17.0194 31.4332 16.738 31.7027 16.5343 32.0302L16.0158 32.9362L15.5384 32.7142C15.4339 32.6728 15.3403 32.6068 15.2652 32.5217C15.1901 32.4366 15.1356 32.3347 15.106 32.2242L15.105 32.2282ZM18.5045 43.1052C18.4814 43.2954 18.3907 43.4704 18.2497 43.5967C18.1086 43.723 17.927 43.7919 17.7395 43.7902C17.6314 43.7894 17.5242 43.7698 17.4225 43.7322L12.7269 42.0242C12.6123 41.9875 12.5071 41.9253 12.4189 41.8421C12.3306 41.759 12.2614 41.6569 12.2162 41.5432C12.1766 41.4281 12.163 41.3054 12.1764 41.1841C12.1898 41.0629 12.2298 40.9464 12.2935 40.8432L16.2975 33.8232L17.7483 34.5002L16.0588 39.1592C15.9787 39.3651 15.9453 39.587 15.9612 39.808C15.9772 40.029 16.042 40.2435 16.1508 40.4352C16.2646 40.6271 16.4185 40.7909 16.6015 40.9148C16.7845 41.0388 16.992 41.1198 17.2093 41.1522L18.797 41.4322L18.5045 43.1052ZM21.9059 40.9552C21.8091 41.0449 21.6928 41.1099 21.5666 41.1447C21.4404 41.1794 21.3079 41.183 21.18 41.1552L19.5894 40.8732L20.3231 36.6922C20.3881 36.2256 20.3064 35.7499 20.0898 35.3338C19.8731 34.9177 19.5328 34.5827 19.1179 34.3772L18.6053 34.1392L19.4289 31.8682L21.0509 32.3062C21.3494 32.4015 21.6124 32.5877 21.8046 32.8398C21.9969 33.0919 22.1094 33.398 22.127 33.7172V40.3482C22.1328 40.459 22.1167 40.5698 22.0797 40.674C22.0427 40.7783 21.9856 40.8739 21.9118 40.9552H21.9059Z" fill="#00A1DF"></path>
<path d="M1.77026 19.2058L3.43819 19.4998L3.15743 21.0918C3.11459 21.3092 3.12041 21.5336 3.17445 21.7484C3.2285 21.9631 3.32936 22.1626 3.4695 22.3318C3.61447 22.5004 3.79385 22.6344 3.99499 22.7244C4.19612 22.8144 4.41412 22.8583 4.63362 22.8528H11.2555C11.7194 22.8413 12.1682 22.6819 12.5393 22.3971C12.9104 22.1122 13.1852 21.716 13.3255 21.2638L13.7491 19.6948L14.6197 20.0108C14.6571 20.0246 14.6964 20.0317 14.7361 20.0318C14.8059 20.0322 14.8741 20.0107 14.9317 19.9703C14.9892 19.9299 15.0332 19.8725 15.058 19.8058C15.3736 18.9391 15.8373 18.1367 16.4275 17.4358C16.4564 17.4016 16.4783 17.3617 16.4918 17.3187C16.5053 17.2756 16.5103 17.2303 16.5064 17.1852C16.5025 17.1402 16.4897 17.0964 16.469 17.0565C16.4482 17.0166 16.4198 16.9813 16.3855 16.9528L13.8117 14.7938C13.5506 14.5651 13.2193 14.4373 12.8755 14.4328C12.6119 14.4363 12.355 14.518 12.1358 14.6678C11.9167 14.8176 11.7448 15.0291 11.6409 15.2768L11.4453 15.7028L4.48493 11.7208C4.24612 11.5827 3.9767 11.5094 3.70232 11.5078C3.39825 11.5097 3.1022 11.6077 2.85474 11.7884C2.60728 11.969 2.42052 12.2234 2.32004 12.5168L0.614932 17.2168C0.534916 17.4228 0.50162 17.6446 0.517548 17.8656C0.533475 18.0866 0.598209 18.3011 0.706887 18.4928C0.821789 18.6844 0.976698 18.8477 1.16053 18.9709C1.34436 19.0942 1.55257 19.1744 1.77026 19.2058ZM13.2863 18.7828V18.7888L11.1293 18.0048L11.7544 16.6598L12.6104 17.1508C12.8744 17.3179 13.0812 17.5646 13.2022 17.8569C13.3233 18.1492 13.3527 18.4727 13.2863 18.7828ZM10.1921 18.3928L9.97884 18.8518C9.95107 18.9122 9.91835 18.9701 9.88102 19.0248C9.7325 19.2273 9.54075 19.3924 9.32036 19.5076C9.09998 19.6229 8.85678 19.6852 8.60928 19.6898C8.54077 19.6901 8.47237 19.6844 8.40482 19.6728L4.22863 18.9378L4.50841 17.3478C4.53144 17.1575 4.62209 16.9824 4.76314 16.8559C4.90419 16.7294 5.08579 16.6604 5.27341 16.6618C5.38185 16.6624 5.48938 16.682 5.59134 16.7198L10.1921 18.3928ZM12.6671 21.0768C12.5656 21.381 12.3769 21.647 12.1254 21.84C11.874 22.033 11.5715 22.1441 11.2574 22.1588H4.63558C4.51548 22.1632 4.39588 22.1407 4.28519 22.0929C4.1745 22.045 4.07539 21.973 3.99482 21.8818C3.91951 21.788 3.86588 21.6781 3.83793 21.5602C3.80998 21.4423 3.80844 21.3194 3.83341 21.2008L4.11417 19.6088L8.29037 20.3438C8.39669 20.3624 8.50435 20.3718 8.61221 20.3718C9.18529 20.3618 9.73488 20.1373 10.1569 19.7408C10.3409 19.5715 10.4916 19.3678 10.601 19.1408L10.8387 18.6278L13.1073 19.4518L12.6671 21.0768ZM12.2641 15.5578C12.3123 15.4298 12.3962 15.3191 12.5054 15.2395C12.6146 15.1598 12.7443 15.1148 12.8784 15.1098C13.0618 15.1154 13.2375 15.1861 13.3754 15.3098L15.6919 17.2538C15.2213 17.8603 14.8342 18.5299 14.5415 19.2438L13.931 19.0218L13.9476 18.9598C14.0547 18.5023 14.0154 18.0218 13.8357 17.5888C13.6559 17.1557 13.3451 16.793 12.9488 16.5538L12.042 16.0348L12.2641 15.5578ZM1.26352 17.4478L2.96863 12.7478C3.01951 12.5876 3.11821 12.4478 3.25086 12.3478C3.38351 12.2479 3.54344 12.193 3.70819 12.1908C3.86284 12.1924 4.01446 12.2348 4.14841 12.3138L11.1576 16.3248L10.4836 17.7768L5.82808 16.0828C5.65112 16.0174 5.4645 15.9836 5.27634 15.9828C4.92988 15.982 4.59451 16.1076 4.33068 16.3372C4.06684 16.5667 3.89188 16.8851 3.83732 17.2348L3.55754 18.8248L1.88863 18.5308C1.76916 18.5149 1.6546 18.4723 1.55314 18.4059C1.45167 18.3395 1.3658 18.2511 1.30167 18.1468C1.24389 18.0409 1.21043 17.9229 1.20382 17.8018C1.19721 17.6807 1.21763 17.5597 1.26352 17.4478Z" fill="#00A1DF"></path>
<path d="M13.0309 30.9324L14.1314 30.0154C14.4781 29.7131 14.712 29.2977 14.7936 28.8395C14.8752 28.3812 14.7996 27.9083 14.5795 27.5004L14.5638 27.4724L15.5196 26.9184C15.5583 26.8964 15.5923 26.8667 15.6196 26.831C15.6469 26.7954 15.667 26.7545 15.6786 26.7107C15.6901 26.667 15.693 26.6214 15.6871 26.5765C15.6811 26.5316 15.6664 26.4884 15.6438 26.4494C15.1856 25.6544 14.8702 24.782 14.7125 23.8734C14.6957 23.7831 14.6446 23.7032 14.5704 23.6511C14.4962 23.599 14.4049 23.579 14.3163 23.5954L6.93926 24.9044C6.79153 24.5214 6.52738 24.197 6.18572 23.979C5.84406 23.761 5.44294 23.6609 5.04143 23.6934L1.56568 24.0004C1.31762 24.0136 1.07455 24.0768 0.850429 24.1863C0.626312 24.2958 0.425557 24.4494 0.259694 24.6384C0.163504 24.7528 0.0915829 24.8863 0.0484756 25.0306C0.00536831 25.1748 -0.0079834 25.3266 0.00926219 25.4764C0.0898998 25.808 0.286399 26.0981 0.561732 26.2918C0.837065 26.4856 1.17222 26.5698 1.50404 26.5284C1.63522 26.5283 1.76614 26.5166 1.89535 26.4934L6.36502 25.7024C6.3328 25.935 6.23551 26.1531 6.08487 26.3306C5.93422 26.508 5.73664 26.6371 5.51589 26.7024L5.15883 26.8024C4.94369 26.857 4.7421 26.9569 4.56704 27.0959C4.39199 27.2349 4.24734 27.4098 4.14241 27.6094C4.04365 27.8006 3.98474 28.0107 3.96942 28.2264C3.95409 28.442 3.98269 28.6586 4.05339 28.8624L2.6672 29.3684C2.45836 29.4397 2.26708 29.5563 2.10649 29.7103C1.94591 29.8643 1.81981 30.0519 1.73687 30.2604C1.65753 30.4681 1.62402 30.6912 1.63873 30.9137C1.65344 31.1361 1.71601 31.3525 1.82198 31.5474L3.24241 34.2724C3.37023 34.5281 3.56469 34.7427 3.8043 34.8925C4.04391 35.0423 4.31936 35.1216 4.60024 35.1214C4.9263 35.1184 5.24368 35.0137 5.51002 34.8214L8.31861 32.8494C8.68874 32.5826 8.95085 32.1869 9.05568 31.7365C9.16052 31.2861 9.10087 30.812 8.88796 30.4034L8.8635 30.3574C8.69872 30.0709 8.4633 29.8336 8.18075 29.6692C7.8982 29.5048 7.5784 29.419 7.25328 29.4204C6.99454 29.4192 6.73859 29.4752 6.50296 29.5844L6.17035 29.7404C6.04281 29.801 5.90401 29.8327 5.76339 29.8334C5.58557 29.8331 5.41182 29.779 5.26403 29.6779C5.11623 29.5768 5.001 29.4333 4.93285 29.2654L12.0644 26.6654C12.1942 26.6188 12.3308 26.5955 12.4684 26.5964C12.6974 26.5948 12.9232 26.6513 13.1257 26.7607C13.3282 26.8701 13.5009 27.0291 13.6286 27.2234L12.2776 28.0044C12.0844 28.1113 11.9163 28.2598 11.7849 28.4398C11.6534 28.6197 11.5619 28.8267 11.5165 29.0464C11.4747 29.2651 11.4805 29.4906 11.5334 29.7068C11.5863 29.9229 11.6851 30.1246 11.8227 30.2974L12.173 30.7554L8.60328 33.7284C8.39922 33.8831 8.22723 34.0777 8.09725 34.3009C7.96728 34.524 7.88192 34.7713 7.84611 35.0284C7.83413 35.155 7.84832 35.2827 7.88776 35.4033C7.9272 35.5239 7.991 35.6347 8.07502 35.7284C8.16603 35.8241 8.27564 35.8993 8.39678 35.949C8.51792 35.9988 8.64791 36.0221 8.77839 36.0174C9.28493 35.9844 9.76052 35.7569 10.1098 35.3804L12.5799 32.9034C12.8237 32.6481 12.9946 32.3295 13.0741 31.9822C13.1535 31.6348 13.1386 31.2718 13.0309 30.9324ZM1.77502 25.8194C1.68554 25.8354 1.59488 25.8434 1.50404 25.8434C1.07361 25.8434 0.721433 25.6434 0.687194 25.3864C0.681831 25.3287 0.68847 25.2704 0.706678 25.2154C0.724885 25.1604 0.75425 25.11 0.792848 25.0674C1.01224 24.8355 1.31008 24.6981 1.62535 24.6834L5.10111 24.3764C5.13241 24.3764 5.16372 24.3764 5.19893 24.3764C5.41582 24.3792 5.62799 24.4415 5.81331 24.5567C5.99863 24.6719 6.15031 24.8359 6.25252 25.0314L1.77502 25.8194ZM5.76339 30.5194C6.00435 30.519 6.24233 30.4651 6.46089 30.3614L6.7935 30.2054C6.93826 30.1386 7.09542 30.1045 7.25426 30.1054C7.45718 30.1036 7.65703 30.1561 7.83396 30.2577C8.01089 30.3592 8.15875 30.5064 8.26285 30.6844L8.2873 30.7304C8.42 30.9912 8.45654 31.292 8.39028 31.5781C8.32401 31.8641 8.15934 32.1162 7.92633 32.2884L5.1197 34.2654C4.9682 34.3749 4.78769 34.4345 4.6022 34.4364C4.44578 34.4348 4.29284 34.389 4.16027 34.3041C4.02769 34.2192 3.92063 34.0986 3.85089 33.9554L2.43143 31.2304C2.37108 31.1215 2.33497 31.0004 2.32566 30.8756C2.31637 30.7508 2.33411 30.6254 2.37763 30.5084C2.42484 30.3912 2.49633 30.2858 2.58718 30.1995C2.67803 30.1132 2.7861 30.048 2.90394 30.0084L4.29013 29.5024C4.40691 29.8042 4.60993 30.0631 4.87272 30.2452C5.13552 30.4273 5.4459 30.5243 5.76339 30.5234V30.5194ZM12.4684 25.9074C12.2509 25.9063 12.0348 25.9435 11.8296 26.0174L4.69415 28.6234C4.65692 28.509 4.64259 28.388 4.652 28.2677C4.66141 28.1475 4.69438 28.0304 4.74893 27.9234C4.8099 27.809 4.89361 27.7088 4.9947 27.6294C5.09579 27.55 5.21201 27.4932 5.33589 27.4624L5.69296 27.3624C6.07914 27.2549 6.42105 27.0227 6.66781 26.7006C6.91457 26.3784 7.05301 25.9835 7.06252 25.5744L14.106 24.3234C14.2683 25.0781 14.5316 25.8063 14.8886 26.4874L14.2234 26.8724C14.0337 26.5741 13.7734 26.3296 13.4666 26.1616C13.1598 25.9936 12.8164 25.9075 12.4684 25.9114V25.9074ZM12.1876 29.1764C12.2142 29.0532 12.2667 28.9374 12.3413 28.8369C12.416 28.7364 12.511 28.6537 12.62 28.5944L13.971 27.8124L13.9867 27.8404C14.1274 28.108 14.175 28.4166 14.1217 28.7155C14.0684 29.0144 13.9173 29.2859 13.6932 29.4854L12.6983 30.3144L12.3647 29.8784C12.2873 29.7822 12.2313 29.67 12.2008 29.5494C12.1702 29.4289 12.1657 29.3029 12.1876 29.1804V29.1764ZM12.0957 32.4134L9.62557 34.8904C9.40336 35.1348 9.10275 35.2895 8.77839 35.3264C8.74305 35.3292 8.70751 35.3248 8.6739 35.3133C8.64029 35.3018 8.60929 35.2835 8.58274 35.2594C8.5618 35.2326 8.54655 35.2015 8.53796 35.1683C8.52937 35.1351 8.52763 35.1004 8.53285 35.0664C8.59664 34.7382 8.77939 34.4468 9.04448 34.2504L12.441 31.4214C12.4585 31.6031 12.4368 31.7865 12.3773 31.9586C12.3178 32.1307 12.222 32.2874 12.0967 32.4174L12.0957 32.4134Z" fill="#00A1DF"></path>
</g>
<defs>
<clipPath id="clip0_1034_446">
<rect width="90" height="45" fill="white"></rect>
</clipPath>
</defs>
</svg>