<svg width="20" height="20" viewBox="0 0 20 20" fill="none" xmlns="http://www.w3.org/2000/svg">
<path d="M11.395 11.9894C11.0045 11.9815 10.625 11.8578 10.3042 11.6339C9.98331 11.41 9.73536 11.0958 9.59142 10.7308C9.44747 10.3658 9.41394 9.96617 9.49502 9.58208C9.57611 9.19798 9.7682 8.84651 10.0472 8.57173C10.3262 8.29695 10.6797 8.11109 11.0634 8.03748C11.4471 7.96387 11.8438 8.00577 12.2039 8.15794C12.5639 8.3101 12.8713 8.56574 13.0874 8.89282C13.3035 9.21989 13.4188 9.60382 13.4187 9.99647C13.4125 10.5303 13.196 11.0399 12.8166 11.4135C12.4373 11.787 11.9261 11.9942 11.395 11.9894ZM11.395 8.45808C11.0938 8.46429 10.801 8.55977 10.5535 8.73255C10.306 8.90532 10.1148 9.14769 10.0037 9.42929C9.89271 9.71088 9.86685 10.0192 9.92939 10.3155C9.99194 10.6118 10.1401 10.8829 10.3553 11.0949C10.5706 11.3069 10.8432 11.4504 11.1392 11.5072C11.4352 11.5641 11.7412 11.5318 12.0191 11.4145C12.2969 11.2972 12.534 11.1 12.7008 10.8478C12.8677 10.5955 12.9567 10.2994 12.9567 9.99647C12.9524 9.58429 12.7855 9.19069 12.4927 8.90215C12.1998 8.6136 11.805 8.45417 11.395 8.45808Z" fill="#0E273A"></path>
<path d="M6.7085 5.5986C6.8748 5.75651 7.09551 5.84347 7.32426 5.84122C7.41659 5.84025 7.50824 5.82527 7.59611 5.79678L8.01031 6.28558C8.09812 6.38472 8.20606 6.46379 8.32684 6.51744C8.44763 6.5711 8.57845 6.59811 8.7105 6.59664C8.86258 6.59783 9.01239 6.55957 9.14546 6.48555L9.1574 6.47844L9.4067 6.90325C9.4274 6.93844 9.46108 6.96399 9.50042 6.97435C9.54014 6.98468 9.58229 6.97911 9.618 6.9588C9.97899 6.75424 10.3725 6.61397 10.781 6.5442C10.8212 6.53737 10.8571 6.51485 10.8809 6.48155C10.8926 6.46529 10.9008 6.44683 10.9052 6.42729C10.9096 6.40775 10.9101 6.38751 10.9065 6.36779L10.3177 3.08838C10.4874 3.02595 10.6323 2.90992 10.7308 2.75771C10.8293 2.60549 10.8761 2.42528 10.8641 2.24409L10.7253 0.696814C10.6873 0.273334 10.3925 -0.0394989 10.0596 0.00404885C9.99294 0.0137 9.9289 0.036779 9.87133 0.0719026C9.81375 0.107026 9.76382 0.153473 9.72453 0.208458C9.66199 0.300179 9.61868 0.403743 9.59725 0.512838C9.57582 0.621933 9.57671 0.734273 9.59988 0.843009L9.95749 2.83154C9.85377 2.81921 9.75582 2.77699 9.67543 2.70998C9.59504 2.64296 9.53564 2.55401 9.5044 2.45383L9.46019 2.29608C9.42002 2.14242 9.33008 2.00658 9.20457 1.91002C9.07906 1.81346 8.92512 1.76167 8.76707 1.76284C8.68685 1.76311 8.60718 1.77616 8.53103 1.8015L8.30205 1.18384C8.25425 1.04977 8.16643 0.933815 8.0506 0.851813C7.93477 0.769812 7.79658 0.725766 7.65491 0.725697C7.53794 0.726082 7.42275 0.754573 7.31896 0.808793L6.08876 1.44024C5.99953 1.48381 5.92078 1.54635 5.85797 1.62354C5.79515 1.70072 5.74977 1.79071 5.72497 1.88727C5.70167 1.9837 5.69981 2.08411 5.71952 2.18134C5.73924 2.27858 5.78003 2.37025 5.83901 2.44983L6.72928 3.69983C6.81154 3.81004 6.91839 3.8993 7.04124 3.96043C7.16408 4.02155 7.29948 4.05284 7.43654 4.05176C7.57513 4.05255 7.71177 4.01897 7.83437 3.954L7.85604 3.9429C8.03538 3.84456 8.17099 3.68155 8.23554 3.4867C8.3001 3.29186 8.2888 3.07966 8.20392 2.89286L8.13363 2.74444C8.10797 2.69309 8.09362 2.63677 8.09156 2.57934C8.0895 2.5219 8.09978 2.4647 8.1217 2.41162C8.14325 2.36204 8.17434 2.31724 8.21318 2.27979C8.25202 2.24235 8.29785 2.213 8.34802 2.19343L9.52384 5.36708C9.56479 5.49486 9.56226 5.6327 9.51663 5.75886C9.47101 5.88503 9.3849 5.99234 9.27188 6.06385L8.91825 5.46262C8.85763 5.35617 8.7702 5.26764 8.66475 5.20594C8.55929 5.14424 8.43954 5.11154 8.31752 5.11113C8.16048 5.11186 8.00801 5.1643 7.88344 5.26043L7.67745 5.41596L6.33586 3.82736C6.26205 3.73061 6.16879 3.65058 6.06217 3.59247C5.95554 3.53436 5.83794 3.49948 5.71701 3.49009C5.61354 3.48764 5.51291 3.52426 5.43499 3.59274C5.39353 3.63109 5.36055 3.67776 5.33817 3.72974C5.31578 3.78171 5.30449 3.83783 5.30503 3.89446C5.31094 4.00924 5.33942 4.1217 5.38881 4.22535C5.4382 4.329 5.50753 4.42179 5.5928 4.49835L6.7085 5.5986ZM9.97252 0.388869C9.98683 0.367161 10.0054 0.348655 10.0272 0.33451C10.049 0.320365 10.0734 0.310884 10.0989 0.306661C10.1059 0.306205 10.1128 0.306205 10.1197 0.306661C10.2444 0.306661 10.3929 0.466632 10.4163 0.725697L10.5551 2.27297C10.561 2.37727 10.5363 2.48101 10.484 2.5713C10.4318 2.6616 10.3543 2.73447 10.2612 2.78088L9.90356 0.792352C9.8878 0.723866 9.88578 0.652908 9.89762 0.583629C9.90946 0.51435 9.93492 0.448139 9.97252 0.388869ZM7.83437 2.29963C7.79603 2.39159 7.77777 2.49074 7.78082 2.5904C7.78388 2.69006 7.80816 2.7879 7.85206 2.87731L7.92234 3.02573C7.97369 3.14193 7.98018 3.27318 7.94055 3.39393C7.90092 3.51467 7.81801 3.61627 7.70795 3.67894L7.68629 3.69005C7.60891 3.73098 7.52265 3.75205 7.43521 3.75137C7.34768 3.75245 7.26112 3.73291 7.18244 3.69433C7.10377 3.65575 7.03516 3.5992 6.98212 3.52919L6.09186 2.2792C6.05839 2.23475 6.03506 2.18344 6.02352 2.12892C6.01199 2.0744 6.01253 2.01799 6.02511 1.9637C6.03956 1.90962 6.06549 1.85933 6.10113 1.81629C6.13677 1.77326 6.18126 1.7385 6.23154 1.71441L7.4613 1.08297C7.52094 1.0516 7.58716 1.035 7.65446 1.03453C7.7333 1.03473 7.81008 1.05974 7.87406 1.10604C7.93804 1.15234 7.98599 1.21762 8.01119 1.29271L8.23972 1.90948C8.14964 1.94322 8.06728 1.99495 7.99762 2.06154C7.92795 2.12814 7.87242 2.20822 7.83437 2.29697V2.29963ZM9.8125 5.26666L8.638 2.0899C8.68093 2.07649 8.72565 2.06975 8.77061 2.0699C8.86082 2.06963 8.94856 2.09952 9.02002 2.15487C9.09148 2.21021 9.1426 2.28787 9.16535 2.37562L9.20956 2.53337C9.26155 2.70732 9.36739 2.86006 9.51168 2.96939C9.65597 3.07871 9.83119 3.13892 10.0119 3.14126L10.5759 6.2767C10.2363 6.3485 9.90779 6.46551 9.59899 6.62463L9.42572 6.32913C9.6005 6.22194 9.73393 6.0583 9.80419 5.86498C9.87445 5.67166 9.87738 5.46009 9.8125 5.26488V5.26666ZM8.07087 5.50528C8.14123 5.45034 8.22755 5.42006 8.31664 5.41907C8.38476 5.41955 8.45153 5.43829 8.51004 5.47336C8.56855 5.50844 8.61669 5.55857 8.64949 5.61859L9.00313 6.21982L8.99075 6.22693C8.90506 6.27418 8.80867 6.29836 8.71094 6.29714C8.6242 6.29817 8.53822 6.28087 8.45856 6.24634C8.37891 6.21182 8.30736 6.16084 8.24857 6.09673L7.8746 5.65236L8.07087 5.50528ZM5.64186 3.82069C5.65194 3.81227 5.66357 3.80594 5.67608 3.80205C5.6886 3.79816 5.70176 3.79679 5.7148 3.79803C5.7904 3.8086 5.86315 3.8342 5.9288 3.87334C5.99445 3.91248 6.05168 3.96437 6.09716 4.02599L7.37333 5.53683C7.29251 5.5443 7.21103 5.53468 7.13414 5.50858C7.05725 5.48248 6.98664 5.44049 6.92687 5.3853L5.80895 4.28417C5.69761 4.18636 5.62718 4.04985 5.6118 3.90201C5.6108 3.88676 5.61295 3.87146 5.61813 3.85708C5.6233 3.8427 5.63138 3.82955 5.64186 3.81847V3.82069Z" fill="#00A1DF"></path>
<path d="M11.9599 5.93187L12.6672 6.11984L12.5244 6.50732C12.5176 6.52622 12.5145 6.54629 12.5155 6.56638C12.5164 6.58647 12.5213 6.60616 12.5299 6.62432C12.5385 6.64248 12.5506 6.65873 12.5656 6.67213C12.5805 6.68554 12.5979 6.69583 12.6168 6.7024C13.0058 6.84183 13.3677 7.04812 13.6865 7.31206C13.7181 7.33807 13.7586 7.35067 13.7993 7.34718C13.8399 7.3437 13.8777 7.32441 13.9044 7.2934L14.8769 6.14827C14.9422 6.07625 14.9897 5.98984 15.0156 5.89599C15.0416 5.80213 15.0453 5.70347 15.0263 5.60793C15.0021 5.51322 14.9563 5.42547 14.8925 5.3516C14.8288 5.27772 14.7488 5.21974 14.659 5.18223L14.4667 5.09335L16.2636 1.99613C16.315 1.91215 16.3469 1.81755 16.3568 1.71943C16.3666 1.6213 16.3543 1.52221 16.3206 1.42957C16.2848 1.33692 16.2289 1.25343 16.157 1.18512C16.0852 1.1168 15.9991 1.06537 15.9051 1.03453L13.7833 0.275557C13.7032 0.246432 13.6187 0.231398 13.5336 0.231119C13.3772 0.230668 13.2258 0.286451 13.1067 0.388394C12.9876 0.490337 12.9087 0.631721 12.8842 0.787019L12.7516 1.52955L12.0337 1.40469C11.9267 1.38419 11.8163 1.38962 11.7118 1.42053C11.6072 1.45144 11.5115 1.50694 11.4326 1.58243C11.3698 1.64557 11.3203 1.72074 11.2869 1.80348C11.2536 1.88623 11.2371 1.97486 11.2385 2.06412V5.01115C11.2488 5.22092 11.3237 5.42227 11.453 5.58726C11.5823 5.75226 11.7595 5.87269 11.9599 5.93187ZM12.6738 3.74204L13.0049 1.88416L13.7228 2.00902C13.7767 2.0161 13.8285 2.03506 13.8743 2.06456C13.9202 2.09405 13.959 2.13336 13.988 2.17966C14.0144 2.22668 14.0298 2.27913 14.033 2.33303C14.0362 2.38693 14.0272 2.44085 14.0066 2.49071L13.252 4.53479L13.0451 4.43969C12.9195 4.37572 12.8166 4.27447 12.7501 4.14967C12.6837 4.02488 12.6571 3.88257 12.6738 3.74204ZM13.0716 5.91276L13.4253 4.95294L14.0322 5.23111L13.8112 5.61148C13.7466 5.71004 13.6587 5.79089 13.5553 5.84674C13.4518 5.9026 13.3362 5.9317 13.2188 5.93142C13.1702 5.93159 13.1218 5.92547 13.0747 5.9132L13.0716 5.91276ZM14.7258 5.67458C14.7345 5.72439 14.7313 5.77557 14.7166 5.82393C14.7018 5.87228 14.6759 5.91643 14.6409 5.95276L13.7639 6.98368C13.4886 6.77334 13.1865 6.60102 12.8657 6.47133L12.9656 6.19982L12.9943 6.20738C13.0678 6.22653 13.1434 6.23608 13.2193 6.23582C13.3908 6.23632 13.5597 6.19319 13.7102 6.11044C13.8606 6.0277 13.9878 5.90803 14.0799 5.76257L14.3138 5.35953L14.5299 5.45818C14.5774 5.4762 14.6199 5.50517 14.6542 5.54276C14.6884 5.58035 14.7134 5.62551 14.7271 5.67458H14.7258ZM13.191 0.840788C13.2014 0.756441 13.2423 0.678876 13.3058 0.622839C13.3694 0.566801 13.4512 0.536196 13.5358 0.536842C13.585 0.537209 13.6337 0.546079 13.6799 0.56306L15.8017 1.32203C15.8534 1.33835 15.901 1.36597 15.9409 1.40293C15.9808 1.43988 16.012 1.48524 16.0324 1.53577C16.0502 1.58695 16.0563 1.64151 16.0502 1.69537C16.0441 1.74924 16.0259 1.80102 15.9971 1.84683L14.1874 4.96627L13.5323 4.66632L14.2961 2.59514C14.3324 2.50356 14.3475 2.4049 14.3403 2.30661C14.3331 2.20831 14.3038 2.11294 14.2545 2.02768C14.203 1.94252 14.1335 1.86984 14.0508 1.81484C13.9681 1.75984 13.8744 1.72388 13.7763 1.70952L13.0584 1.58421L13.191 0.840788ZM11.6536 1.79661C11.7212 1.73202 11.8114 1.69688 11.9047 1.69886C11.9307 1.69886 11.9568 1.70108 11.9825 1.70552L12.7003 1.83039L12.3693 3.68916C12.3402 3.89619 12.3772 4.10716 12.4751 4.29164C12.573 4.47613 12.7266 4.62459 12.9138 4.71564L13.1455 4.82229L12.7733 5.831L12.0404 5.63637C11.9055 5.59392 11.7866 5.51111 11.6997 5.399C11.6129 5.28689 11.5621 5.15082 11.5541 5.00893V2.0619C11.5525 2.01334 11.5604 1.96494 11.5775 1.91948C11.5946 1.87402 11.6204 1.83197 11.6536 1.79661Z" fill="#00A1DF"></path>
<path d="M13.5331 13.9326L13.8868 14.5334C13.9475 14.6399 14.035 14.7285 14.1405 14.7902C14.246 14.8519 14.3659 14.8845 14.4879 14.8849C14.6449 14.8843 14.7974 14.832 14.922 14.7361L15.128 14.581L16.4692 16.1696C16.5429 16.2663 16.6362 16.3464 16.7428 16.4045C16.8495 16.4626 16.9671 16.4975 17.088 16.5068C17.1913 16.5092 17.2918 16.4726 17.3696 16.4042C17.4111 16.3659 17.4442 16.3192 17.4666 16.2672C17.4891 16.2153 17.5004 16.1591 17.5 16.1025C17.4941 15.9877 17.4657 15.8753 17.4164 15.7716C17.3671 15.668 17.2978 15.5752 17.2127 15.4986L16.0952 14.3992C15.9289 14.2413 15.7082 14.1543 15.4794 14.1566C15.387 14.1575 15.2952 14.1725 15.2071 14.201L14.7934 13.7122C14.7057 13.6131 14.5978 13.534 14.4771 13.4803C14.3564 13.4267 14.2256 13.3997 14.0936 13.4012C13.9416 13.4 13.7917 13.4383 13.6587 13.5123L13.6459 13.5194L13.3961 13.0941C13.3751 13.0589 13.3412 13.0334 13.3017 13.023C13.2622 13.0126 13.2203 13.0182 13.1848 13.0386C12.8237 13.2428 12.4303 13.3829 12.0218 13.4527C11.9816 13.4596 11.9457 13.4821 11.9219 13.5154C11.9103 13.5317 11.902 13.5501 11.8976 13.5696C11.8932 13.5892 11.8927 13.6094 11.8963 13.6291L12.4868 16.9126C12.3174 16.9752 12.1727 17.0913 12.0743 17.2435C11.9759 17.3957 11.9291 17.5757 11.9409 17.7568L12.0797 19.3041C12.0774 19.4746 12.1378 19.6399 12.2493 19.7684C12.3608 19.8968 12.5156 19.9793 12.684 20C12.7044 20 12.7247 19.9986 12.745 19.996C12.8116 19.9865 12.8756 19.9636 12.9332 19.9286C12.9908 19.8937 13.0407 19.8474 13.08 19.7925C13.1426 19.7007 13.1859 19.597 13.2073 19.4879C13.2286 19.3787 13.2276 19.2663 13.2043 19.1575L12.8466 17.169C12.9504 17.1813 13.0484 17.2235 13.1289 17.2906C13.2093 17.3577 13.2686 17.4468 13.2997 17.5471L13.3439 17.7049C13.3844 17.858 13.4744 17.9933 13.5997 18.0894C13.725 18.1855 13.8785 18.237 14.0362 18.2359C14.1167 18.2356 14.1967 18.2224 14.2731 18.1968L14.5016 18.8149C14.5496 18.9489 14.6376 19.0648 14.7534 19.1468C14.8693 19.2288 15.0075 19.2728 15.1492 19.273C15.2662 19.2726 15.3814 19.2441 15.4852 19.1899L16.7158 18.5585C16.8052 18.5148 16.884 18.4521 16.9469 18.3748C17.0098 18.2974 17.0552 18.2073 17.0801 18.1106C17.1032 18.0142 17.1049 17.914 17.0851 17.8169C17.0653 17.7198 17.0245 17.6283 16.9656 17.5489L16.0753 16.2984C15.9929 16.1884 15.886 16.0993 15.7632 16.0383C15.6404 15.9772 15.505 15.946 15.368 15.947C15.2279 15.9465 15.0898 15.981 14.9662 16.0474L14.9503 16.0563C14.7706 16.1544 14.6347 16.3174 14.57 16.5124C14.5054 16.7074 14.5168 16.9199 14.602 17.1067L14.6723 17.2547C14.6978 17.306 14.712 17.3623 14.714 17.4196C14.716 17.477 14.7057 17.5341 14.6838 17.5871C14.6622 17.6367 14.631 17.6815 14.5921 17.719C14.5532 17.7564 14.5072 17.7858 14.457 17.8053L13.2812 14.6325C13.2395 14.5043 13.2417 14.3658 13.2874 14.239C13.333 14.1122 13.4195 14.0044 13.5331 13.9326ZM15.8759 14.6147L16.9934 15.7137C17.1045 15.8114 17.1748 15.9477 17.1901 16.0954C17.1911 16.1106 17.1889 16.1259 17.1837 16.1403C17.1786 16.1546 17.1705 16.1678 17.1601 16.1789C17.0938 16.2385 16.8829 16.1838 16.7052 15.9741L15.429 14.4632C15.5101 14.4556 15.5918 14.4651 15.6689 14.4912C15.7461 14.5173 15.816 14.5594 15.8759 14.6147ZM13.8121 13.7736C13.8979 13.7262 13.9944 13.7018 14.0923 13.7029C14.1794 13.7005 14.2659 13.717 14.3461 13.7512C14.4262 13.7854 14.4981 13.8365 14.5569 13.9011L14.9309 14.3455L14.7346 14.4934C14.6642 14.5484 14.5779 14.5786 14.4888 14.5796C14.4207 14.5786 14.3541 14.5597 14.2956 14.5247C14.2371 14.4897 14.1888 14.4398 14.1555 14.3801L13.8019 13.7793L13.8121 13.7736ZM12.8298 19.6098C12.8156 19.6315 12.797 19.6499 12.7753 19.6639C12.7537 19.678 12.7293 19.6874 12.7039 19.6916C12.6969 19.6921 12.69 19.6921 12.6831 19.6916C12.5589 19.6916 12.4099 19.5316 12.3869 19.2735L12.2481 17.7262C12.2425 17.6218 12.2672 17.518 12.3193 17.4276C12.3715 17.3371 12.4487 17.2639 12.5416 17.2169L12.8992 19.2068C12.9302 19.345 12.9047 19.4899 12.8298 19.6098ZM14.9684 17.6991C15.0068 17.6072 15.0252 17.508 15.0222 17.4084C15.0192 17.3087 14.995 17.2108 14.9512 17.1214L14.8809 16.9734C14.8294 16.8561 14.8235 16.7236 14.8645 16.6021C14.9054 16.4806 14.9901 16.3789 15.1019 16.3171L15.1178 16.3082C15.1949 16.2677 15.2806 16.2467 15.3676 16.2473C15.4553 16.2462 15.542 16.2657 15.6208 16.3043C15.6996 16.3429 15.7684 16.3994 15.8216 16.4695L16.7118 17.72C16.7453 17.7642 16.7687 17.8154 16.7803 17.8697C16.7919 17.9241 16.7915 17.9804 16.779 18.0346C16.7646 18.0888 16.7386 18.1393 16.7029 18.1825C16.6672 18.2257 16.6226 18.2606 16.5721 18.2848L15.3415 18.9162C15.2819 18.9476 15.2157 18.9642 15.1483 18.9646C15.0695 18.9645 14.9926 18.9395 14.9285 18.8932C14.8645 18.8469 14.8165 18.7816 14.7912 18.7065L14.5631 18.0888C14.6535 18.055 14.7361 18.003 14.806 17.9361C14.8758 17.8692 14.9305 17.7883 14.9684 17.6991ZM12.9899 14.7329L14.1661 17.9075C14.1232 17.921 14.0785 17.9279 14.0335 17.9279C13.9434 17.9281 13.8559 17.8981 13.7846 17.8428C13.7133 17.7874 13.6623 17.7098 13.6397 17.6222L13.5955 17.4649C13.5434 17.29 13.4369 17.1364 13.2917 17.0268C13.1464 16.9172 12.9699 16.8574 12.7883 16.8561L12.2247 13.7202C12.5642 13.6485 12.8927 13.5316 13.2016 13.3727L13.3753 13.6687C13.2009 13.7763 13.0679 13.9402 12.9981 14.1335C12.9282 14.3269 12.9248 14.5379 12.9899 14.7329Z" fill="#00A1DF"></path>
<path d="M10.8411 14.0664L10.1339 13.8784L10.2766 13.4901C10.2835 13.4712 10.2865 13.4511 10.2856 13.431C10.2846 13.4109 10.2797 13.3912 10.2711 13.3731C10.2625 13.3549 10.2504 13.3387 10.2355 13.3252C10.2206 13.3118 10.2032 13.3016 10.1843 13.295C9.79513 13.1556 9.43314 12.9492 9.11452 12.6849C9.0829 12.6589 9.04248 12.6463 9.0018 12.6498C8.96107 12.6531 8.92328 12.6724 8.89659 12.7035L7.92146 13.85C7.85616 13.9218 7.80861 14.0081 7.78265 14.1018C7.75669 14.1955 7.75306 14.2941 7.77205 14.3895C7.79629 14.4843 7.84213 14.5723 7.90595 14.6463C7.96978 14.7203 8.04984 14.7784 8.13982 14.816L8.33167 14.9049L6.53522 18.0021C6.48382 18.0861 6.45199 18.1807 6.44211 18.2788C6.43224 18.377 6.44457 18.4761 6.4782 18.5687C6.51413 18.6613 6.57003 18.7447 6.64188 18.8129C6.71373 18.8811 6.79974 18.9325 6.89372 18.9633L9.0155 19.7223C9.09518 19.7512 9.1792 19.7663 9.26393 19.7667C9.42051 19.7672 9.57209 19.7114 9.69133 19.6093C9.81057 19.5073 9.8896 19.3658 9.91416 19.2104L10.0468 18.4678L10.7651 18.5931C10.8089 18.6008 10.8533 18.6047 10.8977 18.6047C10.9855 18.6065 11.0728 18.5904 11.1542 18.5574C11.2356 18.5244 11.3096 18.4751 11.3716 18.4126C11.4335 18.35 11.4822 18.2755 11.5148 18.1935C11.5473 18.1115 11.5629 18.0237 11.5608 17.9355V14.9889C11.5532 14.7784 11.4794 14.5758 11.3501 14.41C11.2208 14.2443 11.0426 14.124 10.8411 14.0664ZM10.1272 16.2562L9.7957 18.1137L9.07827 17.9893C9.02425 17.9822 8.97246 17.9631 8.92661 17.9336C8.88076 17.904 8.84198 17.8646 8.81305 17.8182C8.78666 17.7711 8.77127 17.7187 8.76805 17.6648C8.76484 17.6109 8.77387 17.557 8.79448 17.5071L9.5486 15.463L9.75547 15.5577C9.88155 15.6215 9.98502 15.7228 10.0518 15.8477C10.1187 15.9727 10.1456 16.1153 10.129 16.2562H10.1272ZM9.72939 14.0855L9.37576 15.0458L8.7684 14.7672L8.98942 14.3863C9.05393 14.2877 9.14186 14.2068 9.24528 14.1508C9.34869 14.0949 9.46432 14.0657 9.58175 14.066C9.63037 14.0658 9.67881 14.0719 9.72586 14.0842L9.72939 14.0855ZM8.07484 14.3232C8.06605 14.2735 8.06913 14.2224 8.0838 14.1742C8.09848 14.1259 8.12435 14.0818 8.15927 14.0455L9.03716 13.0137C9.31239 13.2242 9.6145 13.3965 9.93538 13.5261L9.83504 13.798L9.80631 13.7905C9.73287 13.7711 9.65724 13.7614 9.58131 13.7616C9.40975 13.7611 9.24086 13.8043 9.09038 13.8871C8.9399 13.97 8.81271 14.0897 8.72066 14.2353L8.48638 14.6379L8.27067 14.5392C8.22343 14.5208 8.18116 14.4915 8.14722 14.4537C8.11329 14.4159 8.08865 14.3706 8.07528 14.3215L8.07484 14.3232ZM9.61093 19.1566C9.60052 19.2411 9.55953 19.3189 9.49579 19.375C9.43205 19.4311 9.34999 19.4617 9.26525 19.461C9.2164 19.4606 9.16797 19.4519 9.12203 19.4352L7.00025 18.6762C6.94849 18.6599 6.90096 18.6323 6.86107 18.5953C6.82117 18.5584 6.78991 18.513 6.76951 18.4625C6.75162 18.4114 6.74547 18.3568 6.75152 18.303C6.75756 18.2491 6.77565 18.1973 6.80442 18.1514L8.61369 15.032L9.26923 15.3328L8.50583 17.4031C8.46961 17.4946 8.45453 17.5932 8.46173 17.6914C8.46893 17.7897 8.49821 17.885 8.54738 17.9701C8.59881 18.0554 8.66836 18.1282 8.75104 18.1833C8.83373 18.2384 8.92751 18.2744 9.02567 18.2888L9.7431 18.4132L9.61093 19.1566ZM11.1479 18.2012C11.1041 18.2411 11.0516 18.27 10.9946 18.2854C10.9375 18.3009 10.8777 18.3025 10.8199 18.2901L10.1011 18.1648L10.4327 16.3069C10.4621 16.0995 10.4251 15.8882 10.3273 15.7033C10.2294 15.5184 10.0756 15.3695 9.88809 15.2782L9.65646 15.1724L10.0287 14.1633L10.7616 14.3579C10.8964 14.4003 11.0153 14.483 11.1021 14.595C11.189 14.7071 11.2398 14.8431 11.2478 14.9849V17.9315C11.2504 17.9807 11.2431 18.0299 11.2264 18.0763C11.2097 18.1226 11.1839 18.1651 11.1506 18.2012H11.1479Z" fill="#00A1DF"></path>
<path d="M2.04897 8.53584L2.80265 8.66649L2.67578 9.37392C2.65643 9.47051 2.65906 9.57024 2.68347 9.66567C2.70789 9.76109 2.75347 9.84972 2.81679 9.92492C2.8823 9.99983 2.96336 10.0594 3.05424 10.0994C3.14513 10.1394 3.24363 10.1589 3.34282 10.1564H6.33498C6.54461 10.1513 6.74742 10.0805 6.9151 9.95392C7.08278 9.82734 7.20697 9.65129 7.27033 9.45035L7.46174 8.75314L7.85515 8.89355C7.87202 8.89966 7.88981 8.90283 7.90775 8.90289C7.93928 8.90305 7.97011 8.89351 7.9961 8.87556C8.02209 8.85761 8.04201 8.83211 8.05318 8.80247C8.1958 8.41735 8.40534 8.06075 8.67204 7.74932C8.68508 7.7341 8.69496 7.7164 8.70108 7.69727C8.7072 7.67814 8.70944 7.65798 8.70766 7.63797C8.70589 7.61795 8.70014 7.5985 8.69076 7.58076C8.68137 7.56302 8.66854 7.54736 8.65303 7.53469L7.49002 6.57531C7.37206 6.47367 7.22234 6.41689 7.06699 6.41489C6.94789 6.41647 6.83179 6.45273 6.73278 6.5193C6.63376 6.58587 6.55608 6.67988 6.50914 6.78994L6.42073 6.97924L3.27563 5.20978C3.16772 5.1484 3.04598 5.11582 2.922 5.11513C2.7846 5.11599 2.65083 5.15953 2.53901 5.2398C2.42719 5.32007 2.3428 5.43313 2.2974 5.56349L1.52692 7.652C1.49077 7.74353 1.47572 7.8421 1.48292 7.94031C1.49012 8.03852 1.51937 8.13381 1.56848 8.21901C1.6204 8.30415 1.69039 8.3767 1.77346 8.43147C1.85652 8.48625 1.95061 8.52189 2.04897 8.53584ZM7.25265 8.34788V8.35054L6.27796 8.00216L6.56042 7.40449L6.9472 7.62268C7.0665 7.69693 7.15994 7.80656 7.21465 7.93645C7.26935 8.06634 7.28263 8.21008 7.25265 8.34788ZM5.85448 8.17457L5.75812 8.37854C5.74557 8.40537 5.73078 8.43109 5.71391 8.45541C5.64681 8.54537 5.56016 8.61875 5.46058 8.66996C5.36099 8.72117 5.2511 8.74885 5.13926 8.75091C5.10831 8.75104 5.0774 8.74851 5.04688 8.74336L3.15982 8.41675L3.28624 7.71022C3.29664 7.62563 3.33761 7.54784 3.40134 7.49164C3.46507 7.43544 3.54713 7.40474 3.63191 7.40538C3.68091 7.40566 3.7295 7.41437 3.77557 7.43115L5.85448 8.17457ZM6.97284 9.36725C6.92699 9.50244 6.8417 9.62061 6.72808 9.70637C6.61447 9.79213 6.47779 9.8415 6.33586 9.84805H3.3437C3.28943 9.85001 3.23539 9.84001 3.18537 9.81874C3.13536 9.79748 3.09057 9.76547 3.05417 9.72496C3.02014 9.68329 2.9959 9.63444 2.98328 9.58204C2.97065 9.52965 2.96995 9.47506 2.98123 9.42235L3.1081 8.71492L4.99516 9.04153C5.0432 9.04979 5.09185 9.05395 5.14059 9.05397C5.39954 9.04952 5.64788 8.94976 5.83857 8.77358C5.92171 8.69834 5.98982 8.60785 6.03925 8.50696L6.14667 8.279L7.17176 8.64516L6.97284 9.36725ZM6.79072 6.9148C6.8125 6.85793 6.85043 6.80875 6.89978 6.77336C6.94913 6.73796 7.00774 6.71793 7.06832 6.71573C7.15117 6.71823 7.23057 6.74965 7.29288 6.8046L8.33962 7.66844C8.12699 7.93796 7.95208 8.23549 7.81979 8.55273L7.54395 8.45408L7.55147 8.42653C7.59983 8.22323 7.58209 8.0097 7.50086 7.81728C7.41964 7.62486 7.2792 7.46368 7.10015 7.35739L6.69038 7.12677L6.79072 6.9148ZM1.82 7.75465L2.59047 5.66614C2.61346 5.59496 2.65806 5.5328 2.718 5.48841C2.77794 5.44402 2.85021 5.41961 2.92465 5.41863C2.99453 5.41935 3.06304 5.43817 3.12357 5.47329L6.29077 7.25563L5.98621 7.90085L3.88255 7.14809C3.80259 7.11905 3.71826 7.10402 3.63324 7.10366C3.47668 7.10328 3.32515 7.15913 3.20593 7.26113C3.08671 7.36314 3.00765 7.50459 2.983 7.66L2.85658 8.36654L2.10246 8.2359C2.04848 8.22885 1.99671 8.2099 1.95086 8.1804C1.90501 8.1509 1.86621 8.11159 1.83724 8.06526C1.81113 8.01819 1.79601 7.96577 1.79302 7.91195C1.79004 7.85814 1.79926 7.80435 1.82 7.75465Z" fill="#00A1DF"></path>
<path d="M7.13728 13.7465L7.63457 13.339C7.7912 13.2046 7.89689 13.0201 7.93378 12.8164C7.97066 12.6128 7.93649 12.4026 7.83703 12.2214L7.82995 12.209L8.26183 11.9628C8.27932 11.953 8.2947 11.9398 8.30703 11.9239C8.31937 11.9081 8.32843 11.8899 8.33366 11.8705C8.33889 11.8511 8.3402 11.8308 8.3375 11.8108C8.33481 11.7909 8.32816 11.7717 8.31796 11.7544C8.11091 11.4011 7.96839 11.0134 7.89714 10.6097C7.88952 10.5695 7.86644 10.534 7.83291 10.5109C7.79939 10.4878 7.75813 10.4789 7.71812 10.4862L4.3847 11.0678C4.31795 10.8976 4.19859 10.7535 4.04421 10.6566C3.88982 10.5597 3.70857 10.5152 3.52715 10.5297L1.95659 10.6661C1.8445 10.672 1.73466 10.7001 1.63339 10.7487C1.53212 10.7974 1.44141 10.8656 1.36646 10.9496C1.323 11.0005 1.2905 11.0598 1.27102 11.1239C1.25154 11.188 1.24551 11.2554 1.2533 11.322C1.28974 11.4694 1.37853 11.5982 1.50294 11.6844C1.62736 11.7705 1.7788 11.8079 1.92874 11.7895C1.98801 11.7894 2.04717 11.7842 2.10555 11.7739L4.12523 11.4224C4.11067 11.5258 4.06671 11.6227 3.99864 11.7016C3.93057 11.7804 3.84129 11.8378 3.74154 11.8668L3.58019 11.9112C3.48298 11.9355 3.39189 11.9799 3.31279 12.0417C3.23369 12.1034 3.16833 12.1811 3.12092 12.2698C3.07629 12.3548 3.04967 12.4482 3.04274 12.544C3.03582 12.6398 3.04874 12.7361 3.08069 12.8266L2.45432 13.0515C2.35996 13.0832 2.27352 13.135 2.20096 13.2034C2.1284 13.2718 2.07142 13.3552 2.03394 13.4478C1.99809 13.5401 1.98295 13.6393 1.9896 13.7381C1.99625 13.837 2.02452 13.9331 2.0724 14.0197L2.71424 15.2306C2.772 15.3442 2.85986 15.4396 2.96813 15.5062C3.0764 15.5728 3.20087 15.608 3.32779 15.6079C3.47512 15.6066 3.61854 15.56 3.73888 15.4746L5.00798 14.5983C5.17523 14.4798 5.29366 14.3039 5.34103 14.1037C5.38841 13.9036 5.36145 13.693 5.26524 13.5114L5.25419 13.491C5.17973 13.3636 5.07336 13.2582 4.94569 13.1851C4.81801 13.1121 4.67351 13.074 4.5266 13.0746C4.40968 13.074 4.29403 13.0989 4.18755 13.1475L4.03726 13.2168C3.97963 13.2437 3.91691 13.2578 3.85337 13.2581C3.77302 13.258 3.69451 13.2339 3.62773 13.189C3.56095 13.1441 3.50888 13.0803 3.47808 13.0057L6.70055 11.8504C6.75919 11.8297 6.82095 11.8193 6.88311 11.8197C6.98658 11.819 7.08863 11.8441 7.18011 11.8927C7.2716 11.9413 7.34967 12.012 7.40736 12.0983L6.79691 12.4454C6.70961 12.4929 6.63363 12.5589 6.57424 12.6388C6.51486 12.7188 6.47349 12.8108 6.453 12.9084C6.43412 13.0056 6.43672 13.1058 6.46063 13.2018C6.48454 13.2979 6.52917 13.3875 6.59136 13.4643L6.74961 13.6678L5.13661 14.9889C5.0444 15.0577 4.96669 15.1441 4.90796 15.2433C4.84923 15.3424 4.81065 15.4523 4.79447 15.5666C4.78906 15.6228 4.79547 15.6796 4.81329 15.7332C4.83111 15.7867 4.85994 15.836 4.89791 15.8776C4.93904 15.9202 4.98856 15.9535 5.0433 15.9757C5.09804 15.9978 5.15678 16.0081 5.21574 16.0061C5.44462 15.9914 5.65952 15.8903 5.81735 15.723L6.9335 14.6223C7.04365 14.5089 7.12087 14.3673 7.15678 14.2129C7.1927 14.0586 7.18596 13.8973 7.13728 13.7465ZM2.05118 11.4744C2.01075 11.4815 1.96978 11.4851 1.92874 11.4851C1.73424 11.4851 1.57511 11.3962 1.55963 11.282C1.55721 11.2563 1.56021 11.2304 1.56844 11.206C1.57667 11.1816 1.58993 11.1592 1.60737 11.1403C1.70651 11.0372 1.84109 10.9762 1.98355 10.9696L3.55411 10.8332C3.56826 10.8332 3.5824 10.8332 3.59832 10.8332C3.69632 10.8345 3.79219 10.8621 3.87593 10.9133C3.95967 10.9645 4.02821 11.0374 4.07439 11.1243L2.05118 11.4744ZM3.85337 13.5629C3.96225 13.5628 4.06979 13.5388 4.16855 13.4927L4.31884 13.4234C4.38425 13.3937 4.45527 13.3785 4.52704 13.379C4.61873 13.3782 4.70903 13.4015 4.78898 13.4466C4.86893 13.4918 4.93574 13.5571 4.98278 13.6363L4.99383 13.6567C5.05379 13.7726 5.07031 13.9063 5.04036 14.0334C5.01042 14.1605 4.93601 14.2725 4.83072 14.349L3.56251 15.2275C3.49406 15.2762 3.41249 15.3027 3.32867 15.3035C3.25799 15.3028 3.18889 15.2824 3.12898 15.2447C3.06908 15.207 3.0207 15.1534 2.98919 15.0898L2.34779 13.8789C2.32052 13.8305 2.3042 13.7767 2.3 13.7212C2.29579 13.6657 2.30381 13.61 2.32348 13.5581C2.34481 13.506 2.37711 13.4591 2.41816 13.4208C2.45922 13.3824 2.50805 13.3534 2.5613 13.3359L3.18766 13.111C3.24043 13.2451 3.33217 13.3601 3.45091 13.4411C3.56966 13.522 3.70991 13.5651 3.85337 13.5647V13.5629ZM6.88311 11.5135C6.78481 11.513 6.68716 11.5296 6.59445 11.5624L3.37022 12.7204C3.3534 12.6696 3.34692 12.6158 3.35118 12.5624C3.35543 12.5089 3.37033 12.4569 3.39498 12.4094C3.42253 12.3585 3.46035 12.314 3.50603 12.2787C3.55171 12.2435 3.60422 12.2182 3.6602 12.2045L3.82155 12.1601C3.99605 12.1123 4.15054 12.0091 4.26204 11.866C4.37355 11.7228 4.4361 11.5473 4.4404 11.3656L7.62308 10.8097C7.6964 11.145 7.8154 11.4686 7.97671 11.7713L7.67612 11.9423C7.59042 11.8098 7.47279 11.7011 7.33416 11.6265C7.19552 11.5518 7.04037 11.5136 6.88311 11.5153V11.5135ZM6.75624 12.9662C6.76826 12.9114 6.79195 12.8599 6.82568 12.8153C6.85941 12.7706 6.90238 12.7339 6.95162 12.7075L7.56208 12.36L7.56915 12.3725C7.63276 12.4914 7.65427 12.6285 7.63018 12.7613C7.60608 12.8941 7.5378 13.0148 7.43654 13.1035L6.98698 13.4718L6.83625 13.2781C6.80127 13.2354 6.77599 13.1855 6.76217 13.1319C6.74835 13.0783 6.74633 13.0224 6.75624 12.9679V12.9662ZM6.71469 14.4046L5.59854 15.5053C5.49814 15.6138 5.3623 15.6826 5.21574 15.699C5.19977 15.7003 5.18371 15.6983 5.16852 15.6932C5.15333 15.688 5.13932 15.6799 5.12733 15.6692C5.11787 15.6573 5.11097 15.6435 5.10709 15.6287C5.10321 15.614 5.10243 15.5985 5.10478 15.5835C5.13361 15.4376 5.21619 15.3081 5.33597 15.2209L6.87073 13.9638C6.87866 14.0445 6.86883 14.126 6.84194 14.2025C6.81505 14.2789 6.77176 14.3485 6.71513 14.4063L6.71469 14.4046Z" fill="#00A1DF"></path>
</svg>